<svg width="32" height="32" viewBox="0 0 32 32" fill="none" xmlns="http://www.w3.org/2000/svg">
<circle cx="16" cy="16" r="16" fill="#FFDFBE"/>
<g clip-path="url(#clip0_112_2499)">
<path d="M13.5912 26.1052C13.5199 26.1068 13.4488 26.0989 13.3804 26.0818L13.2572 26.0284L12.1878 25.5573C12.0569 25.4905 11.9505 25.3947 11.8803 25.2803C11.8102 25.1659 11.779 25.0374 11.7902 24.9091V10.4086C11.7948 10.2098 11.8447 10.0136 11.9373 9.83056L12.0407 9.65683L12.0645 9.62676C12.0906 9.58193 12.1198 9.53842 12.152 9.49645C12.1758 9.46638 12.1917 9.44299 12.2116 9.42295C12.2452 9.38066 12.2824 9.34046 12.3229 9.30267L12.3865 9.23584C12.4286 9.19657 12.4738 9.15974 12.5217 9.12559L12.5853 9.06879C12.656 9.02124 12.7304 8.97771 12.808 8.93848L18.7714 6.02501C18.9171 5.94733 19.0841 5.90246 19.2564 5.89471C19.3888 5.89317 19.5188 5.92455 19.6301 5.98492L20.4809 6.35913C20.6182 6.3894 20.742 6.45259 20.8373 6.54098C20.9326 6.62938 20.9952 6.73916 21.0176 6.85695C21.0414 6.93443 21.0535 7.01415 21.0534 7.09417V21.5346C21.0374 21.829 20.9387 22.116 20.7652 22.3721C20.5918 22.6282 20.3485 22.8462 20.0555 23.008L14.0921 25.9749C13.9415 26.0544 13.7688 26.0993 13.5912 26.1052Z" fill="#3F3B39"/>
<path d="M13.2852 10.7494H12.5576V24.6485H13.2852V10.7494Z" fill="#B5B5B5"/>
<path d="M20.644 7.41829L20.5884 6.61642L19.507 6.13863C19.4042 6.0938 19.2884 6.0744 19.173 6.08268C19.0576 6.09096 18.9473 6.12658 18.855 6.18541L12.9035 9.09888C12.6425 9.24282 12.4256 9.43641 12.2701 9.66395C12.1147 9.89149 12.0253 10.1466 12.009 10.4086V24.9091C11.9969 25.0022 12.0149 25.0964 12.0611 25.1816C12.1073 25.2669 12.1799 25.3401 12.2714 25.3936L13.3488 25.8714L20.644 21.3141V7.41829ZM19.7416 20.148L12.7763 23.6295V11.5747L19.7416 8.14331V20.148Z" fill="#B5B5B5"/>
<path d="M20.6122 6.97726L20.5884 6.61642L19.507 6.13863C19.4042 6.0938 19.2884 6.0744 19.1729 6.08268C19.0575 6.09096 18.9473 6.12658 18.855 6.18541L12.9035 9.09888C12.6094 9.25696 12.3729 9.48007 12.2197 9.74372L13.6589 10.3852L20.6122 6.97726Z" fill="white"/>
<path d="M19.9405 6.66319L13.989 9.56997C13.728 9.71392 13.511 9.9075 13.3556 10.135C13.2002 10.3626 13.1107 10.6177 13.0945 10.8797V25.3802C13.0945 25.8613 13.492 26.0485 13.985 25.8079L19.9484 22.8443C20.2085 22.698 20.4247 22.5029 20.5799 22.2745C20.7351 22.0461 20.8251 21.7905 20.8429 21.5279V7.09419C20.835 6.61307 20.4334 6.41928 19.9405 6.66319ZM20.4533 20.5022L13.4801 23.9803V11.9188L20.4573 8.49747L20.4533 20.5022Z" fill="#F3F3F3"/>
<path d="M13.2216 25.5272V11.1169C13.2327 10.8488 13.3171 10.5864 13.468 10.3501C13.619 10.1137 13.8325 9.90967 14.0922 9.7537L20.0556 6.80013C20.3737 6.6431 20.6758 6.64978 20.8508 6.91707C20.8409 6.83517 20.8045 6.75711 20.7456 6.69135C20.6867 6.62558 20.6074 6.57462 20.5165 6.54399C20.4256 6.51336 20.3264 6.50422 20.2298 6.51757C20.1331 6.53091 20.0427 6.56624 19.9682 6.61971L13.9809 9.56993C13.7174 9.71829 13.4989 9.91644 13.3429 10.1485C13.1869 10.3806 13.0977 10.6401 13.0824 10.9064V25.4069C13.0745 25.4956 13.0937 25.5846 13.1382 25.6653C13.1828 25.746 13.2512 25.8158 13.3369 25.868C13.2902 25.8212 13.2559 25.7666 13.236 25.7079C13.2161 25.6492 13.2112 25.5876 13.2216 25.5272Z" fill="white"/>
<path d="M12.2158 14.6652C12.2218 14.7102 12.24 14.7534 12.2689 14.7917C12.2979 14.8299 12.3368 14.862 12.3828 14.8857L12.7128 15.0494C12.8042 15.0962 12.8758 15.0694 12.8758 14.9926V13.8533C12.8708 13.808 12.8535 13.7642 12.8252 13.7254C12.797 13.6866 12.7585 13.6537 12.7128 13.6294L12.3828 13.4657C12.2914 13.4223 12.2158 13.4456 12.2158 13.5225V14.6652Z" fill="#F3F3F3"/>
<path d="M12.6769 13.6695L12.3748 13.5192C12.3032 13.4824 12.2475 13.4958 12.2277 13.5426C12.2545 13.5435 12.2806 13.5504 12.3032 13.5626L12.6053 13.713C12.6474 13.7341 12.683 13.7633 12.7092 13.7981C12.7354 13.8329 12.7516 13.8724 12.7564 13.9134V14.9525C12.7587 14.9625 12.7587 14.9727 12.7564 14.9826C12.7674 14.9831 12.7783 14.9817 12.7885 14.9783C12.7987 14.9749 12.808 14.9697 12.8155 14.963C12.8231 14.9563 12.8288 14.9483 12.8324 14.9396C12.8359 14.9309 12.8371 14.9216 12.8359 14.9124V13.87C12.8303 13.8284 12.8129 13.7885 12.7852 13.7536C12.7576 13.7188 12.7204 13.6899 12.6769 13.6695Z" fill="white"/>
<path d="M17.8889 9.07884V8.68793L16.0403 9.59003V9.98429L17.8889 9.07884Z" fill="#B5B5B5"/>
<path d="M20.4572 8.49744L13.472 11.9188L13.48 23.9803L20.4532 20.5021L20.4572 8.49744Z" fill="#E67E22"/>
<path d="M20.0876 19.8139L18.9466 19.57L19.3441 18.3839V18.3471V18.3037L18.7955 17.2211L19.6184 17.3414L20.016 17.9228L20.0478 17.9729L20.0876 17.9328L20.4613 17.5653L20.0637 17.8459L19.7775 17.2178V17.1844H19.7178L18.7875 16.9204L19.5827 16.2021L19.6622 16.1319L19.6145 16.0484L19.2805 15.4437L19.7695 15.0227L19.849 14.9525L19.7854 14.8757L17.7976 12.4567L18.6404 11.8853H19.3879H19.4435V11.8386L19.5827 10.4587L19.9802 10.3885V10.3718L20.4573 8.49744L19.9484 10.3184L19.5509 10.3785H19.523V10.4019L19.3441 11.7383H18.6245H18.6007H18.5808L17.6346 12.3464L17.567 12.3865L17.6147 12.4467L19.5071 14.9158L19.0102 15.3234L18.9386 15.3835L18.9784 15.4637L19.2885 16.0651L18.8631 16.3992L18.549 14.5382V14.4881L18.5093 14.4614L17.5909 13.7931L17.4955 12.9812V12.8977H17.3563L15.7104 12.9111L16.9588 11.3474L16.6208 10.9064L15.7661 10.8229L16.5612 10.9031L16.8634 11.3341L15.5156 12.9445L15.4361 13.038H15.5753L17.2649 13.0681L17.3245 13.8433V13.8833L17.3563 13.9134L18.2349 14.6117L18.3264 15.32H18.231L17.7539 15.3L17.8135 14.9158V14.8289L17.7181 14.8055L16.3942 14.4714L15.945 13.89L15.9092 13.8433L15.8535 13.87L15.3248 14.1406L14.4899 13.5125L13.4682 13.4657L14.474 13.5526L15.3089 14.2208L15.3327 14.2408L15.3685 14.2141L15.8854 13.9802L16.2829 14.5583V14.5816H16.3147L17.5511 14.9559L17.4716 15.3869L17.4478 15.5071H17.5988L18.0839 15.5439L18.2469 16.6498L17.0979 16.5395H17.0502L17.0144 16.5563L16.5135 16.7835L16.2352 16.6264L16.0523 16.5329C16.0165 16.5153 15.9793 16.4997 15.941 16.4861H15.9052C15.8829 16.4822 15.8599 16.4822 15.8376 16.4861L15.774 16.5162C15.6575 16.5873 15.5484 16.6666 15.448 16.7534L15.1578 17.004L14.8756 17.2579L14.5734 17.5152L13.9771 17.9963L13.4165 18.0464L13.989 18.0264L14.6211 17.572L14.9352 17.3448L15.2373 17.1042L15.5435 16.8737C15.6412 16.7995 15.7463 16.7325 15.8575 16.6732H15.8774L15.941 16.7033L16.104 16.8002L16.43 17.0106L16.4857 17.0474L16.5612 17.0207L17.0939 16.8135L18.1157 16.9739L16.7799 17.7724L16.7123 17.8125V17.876L16.6606 18.9552L15.7104 19.5933H15.6746V19.6301L15.5633 20.2616L14.2752 20.9298H14.2514V20.9532L13.4881 23.9602L14.3786 21.0066L15.7144 20.3551L15.7542 20.3384V20.2983L15.8814 19.6869L16.8793 19.0755L16.927 19.0454V18.9919L17.0264 17.9328L18.1514 17.3314L18.0521 18.0698L17.7539 18.5309L17.7141 18.5877L17.7459 18.6445L18.0123 19.1256L16.6566 20.5957L16.6288 20.6258L16.6487 20.6592L17.0224 21.284L16.0643 22.7206L17.1257 21.3073V21.2873V21.2673L16.7958 20.6458L18.2826 19.1991L18.3304 19.149L18.2985 19.0822L18.068 18.591L18.3701 18.17V18.15V18.1199L18.5053 17.4517L19.0301 18.3638L18.7518 19.5933L18.7319 19.6669H18.8154L20.0319 19.8306L20.4533 20.4787L20.0876 19.8139Z" fill="#FFBC8A"/>
</g>
<defs>
<clipPath id="clip0_112_2499">
<rect width="9.26316" height="20.2105" fill="white" transform="translate(11.7904 5.89471)"/>
</clipPath>
</defs>
</svg>
