<svg width="24" height="24" viewBox="0 0 24 24" fill="none" xmlns="http://www.w3.org/2000/svg">
<circle cx="12" cy="12" r="12" fill="#AEF0D0"/>
<g clip-path="url(#clip0_442_8831)">
<path d="M11.8204 19.5789C11.679 19.5605 11.3843 19.5212 11.3843 19.3203V12.2136C11.4195 11.7315 11.5591 11.2622 11.7936 10.837C12.0281 10.4117 12.3523 10.0402 12.7445 9.74698L12.8506 7.35655H12.827V6.1417C12.8236 6.12337 12.8236 6.10459 12.827 6.08627C12.8235 6.06795 12.8235 6.04915 12.827 6.03084V6.03776C12.8297 6.01401 12.8378 5.99113 12.8506 5.97079V5.86454C12.844 5.80725 12.8503 5.74923 12.869 5.69456C12.8878 5.6399 12.9185 5.58992 12.959 5.54813C13.0372 5.47156 13.1309 5.41186 13.234 5.37288C13.3371 5.3339 13.4474 5.3165 13.5578 5.32179C13.6682 5.31742 13.7783 5.33571 13.881 5.37549C13.9837 5.41526 14.0768 5.47564 14.1543 5.55275C14.1943 5.59488 14.2247 5.64491 14.2434 5.69948C14.2621 5.75405 14.2687 5.8119 14.2627 5.86916L14.2486 5.97079C14.2588 5.99172 14.2645 6.01455 14.2651 6.03776H14.2792V7.36809H14.2462L14.3476 9.71003C15.175 10.1974 15.788 11.4237 15.788 12.2252V19.3203C15.788 19.5004 15.5522 19.5512 15.2976 19.5789H11.8204Z" fill="#3F3B39"/>
<path d="M11.8204 19.4635H15.2858C15.5215 19.4381 15.6724 19.3919 15.6724 19.3203V12.2136C15.6724 11.4445 15.0689 10.2181 14.2344 9.76777L14.0788 6.15787H13.0179L12.8506 9.81165C12.0585 10.2967 11.4927 11.4676 11.4927 12.2136V19.3203C11.5021 19.3919 11.62 19.4334 11.8204 19.4635Z" fill="#423B08"/>
<path d="M13.0863 19.0963C12.6525 19.0963 11.8581 19.0963 11.6978 19.0108V12.082C11.6978 11.3891 12.2376 10.2805 12.959 9.83707L13.0203 9.80012L13.1594 6.29184H13.9397L14.0882 9.75624L14.1542 9.79088C14.9062 10.1997 15.4885 11.3568 15.4885 12.0774V19.0062C15.2976 19.0963 14.3522 19.0963 13.5884 19.0963H13.0863Z" fill="#5B510C"/>
<path d="M15.6723 12.3753H11.502V17.856H15.6723V12.3753Z" fill="#CCBA2E"/>
<path d="M14.0289 6.75145C14.0124 6.88309 13.7932 6.98241 13.5574 6.98241C13.3217 6.98241 13.1024 6.88079 13.0859 6.75145L12.9728 5.8507C12.9445 5.61974 13.2085 5.43729 13.5574 5.43729C13.911 5.43729 14.1727 5.62898 14.1444 5.8507L14.0289 6.75145Z" fill="#EFD978"/>
<path d="M14.1614 6.08628C14.1608 6.10876 14.1514 6.13016 14.1352 6.14606C14.119 6.16196 14.0971 6.17115 14.0742 6.17173H13.0228C12.9998 6.17115 12.978 6.16196 12.9618 6.14606C12.9455 6.13016 12.9361 6.10876 12.9355 6.08628C12.9361 6.0638 12.9455 6.0424 12.9618 6.0265C12.978 6.0106 12.9998 6.00141 13.0228 6.00082H14.0742C14.0971 6.00141 14.119 6.0106 14.1352 6.0265C14.1514 6.0424 14.1608 6.0638 14.1614 6.08628Z" fill="#423B08"/>
<path d="M14.1636 6.14169H12.9448V7.24106H14.1636V6.14169Z" fill="#394251"/>
<g style="mix-blend-mode:overlay" opacity="0.6">
<path d="M13.2536 6.1394C13.2536 6.1394 13.1146 9.00562 13.1146 9.83476C13.1146 10.0657 12.0537 10.5484 12.0537 12.2067V19.3942L12.7209 19.415V12.5809C12.7209 10.6916 13.5083 10.3637 13.5083 9.95948V6.1394H13.2536Z" fill="white"/>
<path d="M14.2838 10.0449H14.1919C14.6744 10.5925 14.9272 11.299 14.8991 12.0219V19.3942H14.819V19.4126L15.4885 19.3919V12.2136C15.4838 10.9249 14.4276 9.98024 14.2838 10.0449Z" fill="white"/>
</g>
<path d="M9.31426 19.5789C9.16338 19.5604 8.84277 19.5165 8.84277 19.304V11.7494C8.84277 10.9433 9.43449 9.68688 10.2902 9.12796L10.3987 6.5874H10.3751V5.29402C10.3727 5.27408 10.3727 5.25392 10.3751 5.23397C10.3728 5.21479 10.3728 5.19541 10.3751 5.17623C10.3819 5.15355 10.3931 5.13237 10.4081 5.11387L10.394 4.99839C10.3863 4.93589 10.3926 4.8725 10.4126 4.81265C10.4326 4.75281 10.4656 4.69796 10.5095 4.65195C10.5931 4.57321 10.6923 4.51208 10.801 4.47236C10.9096 4.43263 11.0254 4.41515 11.1413 4.421C11.2575 4.41497 11.3737 4.43236 11.4828 4.47208C11.5919 4.51181 11.6915 4.57303 11.7754 4.65195C11.8182 4.69667 11.8506 4.75003 11.8701 4.80828C11.8897 4.86653 11.896 4.92827 11.8886 4.98916L11.8768 5.11387C11.8914 5.1326 11.9026 5.15371 11.9098 5.17623H11.9216V6.58509H11.8886L11.9947 9.07484C12.8763 9.5945 13.527 10.8971 13.527 11.7494V19.304C13.527 19.4934 13.2771 19.5489 13.006 19.5789H9.31426Z" fill="#3F3B39"/>
<path d="M9.31432 19.4565H12.9919C13.2489 19.4288 13.4021 19.3803 13.4021 19.3041V11.7494C13.4021 10.9295 12.7609 9.62689 11.8721 9.1488L11.7071 5.31256H10.5779L10.4129 9.19731C9.56892 9.71004 8.96777 10.9572 8.96777 11.7494V19.3041C8.96777 19.3803 9.09272 19.4334 9.31432 19.4565Z" fill="#08421F"/>
<path d="M10.6417 19.0662C10.1702 19.0662 9.33567 19.0662 9.16357 18.9761V11.6062C9.16357 10.8694 9.73879 9.69154 10.505 9.22039L10.5686 9.18112L10.7289 5.45343H11.5564L11.7167 9.14879L11.785 9.18805C12.5842 9.62226 13.1995 10.851 13.1995 11.6177V18.9715C12.9968 19.0662 11.9925 19.0662 11.1792 19.0662H10.6417Z" fill="#0C5B28"/>
<path d="M13.4021 11.9226H8.96777V17.7474H13.4021V11.9226Z" fill="#2ECC71"/>
<path d="M11.6456 5.94307C11.6268 6.08165 11.4099 6.18789 11.1412 6.18789C10.8818 6.18789 10.6555 6.08165 10.639 5.94307L10.5188 4.98459C10.4929 4.74901 10.7663 4.54346 11.1412 4.54346C11.516 4.54346 11.7942 4.74901 11.7659 4.98459L11.6456 5.94307Z" fill="#EFD978"/>
<path d="M11.7945 5.23406C11.7945 5.25816 11.7849 5.28132 11.7677 5.29858C11.7505 5.31584 11.7272 5.32584 11.7026 5.32644H10.5851C10.5729 5.32644 10.5607 5.32404 10.5494 5.31937C10.5381 5.3147 10.5278 5.30786 10.5193 5.29925C10.5107 5.29064 10.504 5.28043 10.4995 5.26924C10.495 5.25804 10.4929 5.24608 10.4932 5.23406C10.4932 5.21017 10.5029 5.18726 10.5201 5.17036C10.5374 5.15347 10.5608 5.14398 10.5851 5.14398H11.7026C11.7268 5.14457 11.7498 5.15425 11.7669 5.17101C11.784 5.18778 11.7939 5.21035 11.7945 5.23406Z" fill="#08421F"/>
<path d="M11.799 5.29407H10.5024V6.46272H11.799V5.29407Z" fill="#394251"/>
<g style="mix-blend-mode:overlay" opacity="0.6">
<path d="M10.8299 5.28946C10.8299 5.28946 10.6837 8.33813 10.6837 9.21578C10.6837 9.46983 9.5498 9.98718 9.5498 11.7494V19.3826L10.257 19.4034V12.1374C10.257 10.1304 11.0939 9.78163 11.0939 9.35204V5.28946H10.8299Z" fill="white"/>
<path d="M11.9238 9.44212H11.8271C12.3378 10.0262 12.6047 10.7776 12.5745 11.5462V19.3826H12.4896V19.4011L13.1968 19.3803V11.7586C13.1992 10.3798 12.0794 9.37283 11.9238 9.44212Z" fill="white"/>
</g>
</g>
<defs>
<clipPath id="clip0_442_8831">
<rect width="6.94737" height="15.1579" fill="white" transform="translate(8.84277 4.42105)"/>
</clipPath>
</defs>
</svg>
