<svg width="24" height="24" viewBox="0 0 24 24" fill="none" xmlns="http://www.w3.org/2000/svg">
<circle cx="12" cy="12" r="12" fill="#D7D7D7"/>
<g clip-path="url(#clip0_442_8856)">
<path d="M12.0014 19.9999C9.90193 19.9999 7.64999 19.5637 7.60684 18.7599V18.6573C7.60684 17.1465 7.56946 11.9927 7.08916 8.96547C7.05753 8.91149 7.03883 8.85102 7.03451 8.78874C7.03451 8.76878 7.03451 8.71463 7.03451 8.65476C7.03451 8.5949 7 8.48943 7 8.45808C7 8.23004 7.16106 8.0248 7.51769 7.84807C7.21117 7.43548 7.04862 6.93514 7.05464 6.4228C7.07132 6.2419 7.13247 6.0678 7.23275 5.91574C7.33302 5.76368 7.46937 5.63829 7.62985 5.55054C7.55501 5.46301 7.49037 5.36739 7.43716 5.26549C7.36041 5.13782 7.31359 4.99469 7.30014 4.84667C7.2867 4.69865 7.30699 4.54953 7.35951 4.41033C7.40187 4.33511 7.46089 4.27038 7.53212 4.22101C7.60336 4.17164 7.68495 4.13891 7.77078 4.12528L8.25108 3.99986C8.28649 3.99704 8.32208 3.99704 8.35749 3.99986C8.52868 4.00394 8.69322 4.06635 8.82341 4.17659C8.97974 4.30327 9.10552 4.463 9.19154 4.64408C9.23727 4.7244 9.27393 4.80948 9.30083 4.89777L9.36698 5.14007C9.87343 5.1522 10.371 5.2747 10.8243 5.49885C11.2776 5.723 11.6756 6.04332 11.9899 6.43706C12.2251 6.74062 12.5111 7.00191 12.8355 7.20955C14.8487 7.28936 16.4219 7.64568 16.862 8.12172C16.9087 8.1667 16.9453 8.22089 16.9696 8.28079C16.9939 8.34069 17.0052 8.40497 17.0029 8.46948C16.9996 8.53062 16.9929 8.59153 16.9827 8.65191C16.9827 8.71177 16.9827 8.76878 16.9684 8.79159C16.9634 8.85247 16.9458 8.91168 16.9166 8.96547C16.4334 12.0041 16.396 17.1579 16.396 18.6573V18.7599C16.35 19.5637 14.0981 19.9999 12.0014 19.9999ZM7.99799 5.10301C8.09634 5.09962 8.19348 5.08036 8.28559 5.046L8.62209 4.92628C8.67629 4.90812 8.72836 4.88423 8.77739 4.85501C8.77739 4.85501 8.77739 4.83506 8.77739 4.82651C8.7435 4.7374 8.69082 4.65647 8.62288 4.58913C8.55494 4.52179 8.47329 4.46958 8.38338 4.43599L7.89733 4.53861C7.88321 4.54582 7.87129 4.55665 7.86281 4.56996C7.84457 4.64962 7.84281 4.73211 7.85764 4.81246C7.87247 4.89281 7.90358 4.96935 7.94909 5.03745C7.95983 5.06022 7.97233 5.08214 7.98648 5.10301H7.99799Z" fill="#3F3B39"/>
<path d="M16.7986 8.79175H7.2041C7.77931 12.2922 7.7448 18.6945 7.74767 18.7515C7.77931 19.37 9.68325 19.8632 12.0013 19.8632C14.3194 19.8632 16.2205 19.37 16.255 18.7515C16.2579 18.6945 16.2032 12.2922 16.7986 8.79175Z" fill="#CAC5C1"/>
<path d="M11.4551 8.79173V19.752C11.6334 19.752 11.8146 19.752 12.0015 19.752C12.3742 19.7986 12.752 19.7851 13.1203 19.7121L13.2353 8.74042L11.4551 8.79173Z" fill="#9F9DA8"/>
<path d="M11.8545 8.84591L9.78955 8.79175V19.5981C10.4165 19.6779 11.1154 19.7406 11.8545 19.7834V8.84591Z" fill="#F4F4F4"/>
<path d="M8.08992 8.79175H7.2041C7.78506 12.2665 7.7448 18.6061 7.74767 18.6631C7.74767 18.8113 7.87997 18.9482 8.08992 19.0821V8.79175Z" fill="#9F9DA8"/>
<path d="M8.40088 8.79175V19.2389C8.7495 19.3752 9.11072 19.4773 9.47939 19.5439V8.79175H8.40088Z" fill="#E0DCD9"/>
<path d="M15.3408 8.79175V19.3387C15.8959 19.1534 16.241 18.9225 16.2554 18.6688C16.2554 18.6118 16.2151 12.2665 16.799 8.79745L15.3408 8.79175Z" fill="#9F9DA8"/>
<path d="M15.4096 8.63779L14.5698 8.79171V19.5467C14.9667 19.4356 15.2371 19.3672 15.5017 19.2759L15.4096 8.63779Z" fill="#E0DCD9"/>
<path d="M14.5869 8.75183L13.1201 8.79174V19.7235C13.5026 19.695 14.3137 19.5781 14.6444 19.524L14.5869 8.75183Z" fill="#DFDDE0"/>
<path d="M16.7786 8.77177C16.7441 9.37323 14.6043 9.85497 11.9957 9.85497C9.38714 9.85497 7.25024 9.37323 7.21861 8.77177C7.18697 8.17031 9.32675 7.66006 12.0015 7.66006C14.6762 7.66006 16.816 8.16176 16.7786 8.77177Z" fill="#ADADAD"/>
<path d="M16.8618 8.44966C16.8963 7.82824 14.7192 7.30945 12.0013 7.30945C9.28345 7.30945 7.11204 7.81969 7.13792 8.44966C7.13792 8.50952 7.16956 8.73471 7.17244 8.77177C7.20695 9.37893 9.36686 9.86352 12.0013 9.86352C14.6358 9.86352 16.7957 9.37893 16.8273 8.77177C16.8302 8.72331 16.8589 8.50952 16.8618 8.44966Z" fill="#92919B"/>
<path d="M16.7265 8.35559C16.7582 7.80544 14.6443 7.3522 12.0012 7.3522C9.35811 7.3522 7.24134 7.80544 7.28736 8.35559C7.28736 8.40975 7.31899 8.59788 7.32187 8.64064C7.35351 9.18224 9.45589 9.61267 12.0156 9.61267C14.5752 9.61267 16.6748 9.18224 16.7064 8.64064C16.6949 8.59788 16.7237 8.40975 16.7265 8.35559Z" fill="#DFDDE0"/>
<path d="M16.5915 8.38125C16.5628 8.90575 14.5093 9.32477 11.9899 9.32477C9.47044 9.32477 7.42558 8.90575 7.38819 8.38125C7.3508 7.85675 9.43881 7.42062 12.0014 7.42062C14.5639 7.42062 16.6174 7.85105 16.5915 8.38125Z" fill="#88888A"/>
<path d="M12.0011 7.78833C9.75205 7.78833 7.897 8.12469 7.50586 8.56082C7.93439 8.99695 9.78944 9.32191 12.0011 9.32191C14.2128 9.32191 16.065 8.9998 16.4906 8.56082C16.1052 8.12469 14.2473 7.78833 12.0011 7.78833Z" fill="#7B7B7C"/>
<path d="M11.8891 6.51131C10.3044 4.52449 7.22995 5.22857 7.19256 6.43149C7.16667 7.33511 7.88281 9.33618 12.0013 9.33618C14.2101 9.33618 16.0278 9.05112 16.4966 8.56368C15.4554 7.59451 13.3818 8.40691 11.8891 6.51131Z" fill="#EAEAEA"/>
<path d="M15.4899 8.56082C15.4899 8.49241 15.464 8.37839 14.7508 8.27577C13.7873 8.11899 12.5909 7.9223 11.6274 6.70798C11.3423 6.35253 10.979 6.06632 10.5653 5.87118C10.1516 5.67605 9.69841 5.57715 9.24027 5.58202C8.33432 5.58202 7.52903 5.98394 7.51465 6.43718C7.51573 6.70323 7.57049 6.96637 7.67569 7.21114C7.7809 7.45591 7.93442 7.67735 8.12725 7.86244C8.86639 8.61783 10.2066 9.0169 12.0013 9.0169H12.7893C14.0519 9.0169 14.8572 8.9998 15.3777 8.73185C15.4899 8.69194 15.4985 8.61498 15.4899 8.56082ZM15.3289 8.64063C14.7393 8.92569 13.7327 8.90003 12.0013 8.90003C10.2699 8.90003 8.92391 8.52376 8.20202 7.78833C8.02148 7.61265 7.87773 7.40336 7.77902 7.17247C7.68031 6.94158 7.62858 6.69364 7.62681 6.44288C7.62681 6.08656 8.33144 5.68749 9.24603 5.68749C9.68757 5.68348 10.1242 5.7792 10.5229 5.96737C10.9215 6.15555 11.2717 6.43124 11.5469 6.77354C12.5333 8.02207 13.7557 8.21876 14.7364 8.37839C15.0528 8.4297 15.5589 8.53802 15.3404 8.65204L15.3289 8.64063Z" fill="#CAC5C1"/>
<path d="M12.0012 12.1297C10.0426 12.1297 8.34577 11.8903 7.5376 11.5396C7.88847 12.0356 9.76365 12.4832 12.0012 12.4832C14.2388 12.4832 16.1111 12.0356 16.462 11.5396C15.6567 11.8903 13.9569 12.1297 12.0012 12.1297Z" fill="#88888A"/>
<path d="M12.0013 12.1012C10.4978 12.1197 8.99835 11.9443 7.54053 11.5796C7.88278 11.9188 9.75796 12.2808 12.0013 12.2808C14.2446 12.2808 16.1169 11.9188 16.462 11.5796C15.0041 11.9439 13.5047 12.1193 12.0013 12.1012Z" fill="#DFDDE0"/>
<path d="M12.0017 12.6171C10.0546 12.6171 8.36638 12.3777 7.56396 12.0328C7.91197 12.5231 9.77564 12.9649 12.0017 12.9649C14.2278 12.9649 16.0886 12.5231 16.4366 12.0328C15.6284 12.3777 13.9459 12.6171 12.0017 12.6171Z" fill="#88888A"/>
<path d="M12.0014 12.5858C10.5098 12.6031 9.02209 12.4297 7.5752 12.0698C7.91457 12.4062 9.77824 12.7625 12.0101 12.7625C14.2419 12.7625 16.1027 12.4062 16.4449 12.0698C14.9924 12.4311 13.4988 12.6046 12.0014 12.5858Z" fill="#DFDDE0"/>
<path d="M12.0017 13.096C10.0661 13.096 8.38651 12.8623 7.58984 12.5259C7.93497 13.0133 9.79002 13.4495 12.0017 13.4495C14.2134 13.4495 16.0655 13.0133 16.4135 12.5259C15.6284 12.8623 13.9344 13.096 12.0017 13.096Z" fill="#88888A"/>
<path d="M12.0017 13.0675C10.5149 13.0832 9.03215 12.9098 7.58984 12.5516C7.92922 12.8822 9.78426 13.2357 12.0017 13.2357C14.2191 13.2357 16.0713 12.8879 16.4107 12.5516C14.9694 12.9101 13.4876 13.0835 12.0017 13.0675Z" fill="#DFDDE0"/>
<path d="M12.0011 13.5692C10.0771 13.5692 8.40609 13.3383 7.6123 12.9991C7.95743 13.4808 9.80097 13.9113 12.0011 13.9113C14.2013 13.9113 16.042 13.4808 16.3871 12.9991C15.5933 13.3383 13.9252 13.5692 12.0011 13.5692Z" fill="#88888A"/>
<path d="M12.0017 13.5407C10.524 13.5582 9.05008 13.3887 7.61572 13.0362C7.95222 13.3668 9.79576 13.7146 12.0017 13.7146C14.2076 13.7146 16.0483 13.3668 16.3877 13.0362C14.9533 13.3885 13.4794 13.5581 12.0017 13.5407Z" fill="#DFDDE0"/>
<path d="M12.0011 14.0396C10.0857 14.0396 8.42622 13.8115 7.63818 13.4695C7.98043 13.9455 9.81247 14.3702 12.0011 14.3702C14.1898 14.3702 16.0276 13.9455 16.3641 13.4695C15.5761 13.8115 13.9022 14.0396 12.0011 14.0396Z" fill="#88888A"/>
<path d="M12.0011 14.011C10.5314 14.0281 9.0654 13.8605 7.63818 13.5122C7.97468 13.8372 9.80672 14.1821 12.0011 14.1821C14.1956 14.1821 16.0276 13.8372 16.3612 13.5122C14.935 13.8605 13.4699 14.0281 12.0011 14.011Z" fill="#DFDDE0"/>
<path d="M12.0016 14.5042C10.0976 14.5042 8.44678 14.2761 7.66162 13.9341C8.00387 14.4158 9.8244 14.832 12.0016 14.832C14.1787 14.832 15.9993 14.4101 16.3386 13.9398C15.5564 14.2761 13.9026 14.5042 12.0016 14.5042Z" fill="#88888A"/>
<path d="M12.0011 14.4757C10.54 14.4906 9.08287 14.323 7.66406 13.9768C7.99768 14.2989 9.81822 14.6382 12.0011 14.6382C14.1841 14.6382 16.0017 14.3046 16.3382 13.9768C14.9194 14.323 13.4622 14.4906 12.0011 14.4757Z" fill="#DFDDE0"/>
<path d="M12.0016 14.9631C10.1091 14.9631 8.46403 14.7379 7.6875 14.4101C8.02687 14.8747 9.83878 15.2938 12.0016 15.2938C14.1643 15.2938 15.9763 14.8747 16.3156 14.4101C15.5362 14.7379 13.9026 14.9631 12.0016 14.9631Z" fill="#88888A"/>
<path d="M12.0016 14.9346C10.5486 14.9514 9.09934 14.7876 7.6875 14.4472C8.02112 14.7636 9.83303 15.1028 12.0016 15.1028C14.1701 15.1028 15.982 14.7636 16.3156 14.4472C14.9038 14.7877 13.4545 14.9514 12.0016 14.9346Z" fill="#DFDDE0"/>
<path d="M12.0015 15.4163C10.1177 15.4163 8.4841 15.194 7.71045 14.8719C8.04695 15.3308 9.84735 15.7441 12.0015 15.7441C14.1557 15.7441 15.9532 15.3308 16.2926 14.8719C15.516 15.194 13.8824 15.4163 12.0015 15.4163Z" fill="#88888A"/>
<path d="M12.0015 15.4021C10.5563 15.4193 9.11468 15.2565 7.71045 14.9175C8.04119 15.2339 9.84447 15.5674 12.0015 15.5674C14.1585 15.5674 15.9589 15.2339 16.2897 14.9175C14.8864 15.2563 13.4457 15.4191 12.0015 15.4021Z" fill="#DFDDE0"/>
<path d="M12.0014 15.8667C10.1291 15.8667 8.50418 15.6472 7.7334 15.3251C8.06702 15.7812 9.85879 16.1803 12.0014 16.1803C14.1441 16.1803 15.933 15.7727 16.2695 15.3251C15.4987 15.6472 13.8737 15.8667 12.0014 15.8667Z" fill="#88888A"/>
<path d="M12.0014 15.8382C10.5644 15.8555 9.13068 15.6956 7.7334 15.3622C8.06414 15.6871 9.85592 16.0036 12.0014 16.0036C14.147 16.0036 15.9387 15.6871 16.2666 15.3622C14.8703 15.6956 13.4376 15.8555 12.0014 15.8382Z" fill="#DFDDE0"/>
<path d="M12.0014 16.3114C10.1377 16.3114 8.52138 16.0919 7.75635 15.7755C8.08997 16.2259 9.87024 16.6307 12.0014 16.6307C14.1325 16.6307 15.9128 16.2259 16.2435 15.7755C15.4785 16.0919 13.8622 16.3114 12.0014 16.3114Z" fill="#88888A"/>
<path d="M12.0014 16.2829C10.5722 16.3001 9.1464 16.1421 7.75635 15.8126C8.08422 16.1176 9.86736 16.4454 12.0014 16.4454C14.1354 16.4454 15.9157 16.1176 16.2435 15.8126C14.8544 16.1419 13.4296 16.2999 12.0014 16.2829Z" fill="#DFDDE0"/>
<path d="M12.0013 16.7504C10.1492 16.7504 8.55008 16.5338 7.7793 16.2231C8.11004 16.6677 9.88168 17.0782 12.0013 17.0782C14.121 17.0782 15.8897 16.6791 16.2234 16.2231C15.4583 16.5423 13.8535 16.7504 12.0013 16.7504Z" fill="#88888A"/>
<path d="M12.0013 16.7247C10.58 16.7409 9.16202 16.5839 7.7793 16.2573C8.10429 16.5594 9.87881 16.8844 12.0013 16.8844C14.1238 16.8844 15.8955 16.5594 16.2205 16.2573C14.8387 16.5839 13.4217 16.7409 12.0013 16.7247Z" fill="#DFDDE0"/>
<path d="M12.0013 17.1865C10.1577 17.1865 8.55002 16.9727 7.80225 16.662C8.13011 17.101 9.89313 17.4972 12.0013 17.4972C14.1094 17.4972 15.8695 17.1124 16.2032 16.662C15.441 16.9727 13.8419 17.1865 12.0013 17.1865Z" fill="#88888A"/>
<path d="M12.0013 17.158C10.5878 17.174 9.17774 17.019 7.80225 16.6962C8.12724 16.9984 9.89025 17.3176 12.0013 17.3176C14.1123 17.3176 15.8753 16.9984 16.2032 16.6962C14.8268 17.0193 13.4157 17.1744 12.0013 17.158Z" fill="#DFDDE0"/>
<path d="M14.6674 8.50669C14.6674 8.45253 14.6444 8.36131 14.0577 8.25869C13.2639 8.12187 12.2774 7.95084 11.4836 6.96171C11.2457 6.67087 10.9455 6.43609 10.6048 6.27439C10.2641 6.11269 9.89131 6.02809 9.51354 6.02673C8.76864 6.02673 8.10428 6.32889 8.09277 6.69661C8.09717 6.91035 8.14415 7.12112 8.23102 7.3168C8.31789 7.51248 8.44293 7.6892 8.59896 7.83682C9.20868 8.45538 10.3246 8.79174 11.7914 8.81455H12.4413C13.4825 8.83165 14.144 8.81455 14.5725 8.62926C14.6674 8.60076 14.6732 8.5409 14.6674 8.50669ZM14.5322 8.5694C14.0462 8.79174 13.2179 8.75754 11.7914 8.73758C10.3648 8.71763 9.25469 8.38697 8.66223 7.78836C8.51245 7.64816 8.39273 7.47947 8.31021 7.29238C8.22768 7.10529 8.18406 6.90363 8.18193 6.69946C8.18193 6.4144 8.75714 6.10085 9.51354 6.11225C9.87761 6.11301 10.2369 6.19427 10.5653 6.3501C10.8937 6.50592 11.1828 6.7324 11.4117 7.01302C12.2285 8.0278 13.2351 8.20168 14.0433 8.34136C14.2935 8.38697 14.7221 8.48104 14.5322 8.56085V8.5694Z" fill="#CAC5C1"/>
<path d="M9.67159 6.51985L9.15678 4.93496C9.13435 4.85542 9.1045 4.77812 9.06762 4.70407C8.98822 4.53975 8.87099 4.39622 8.72537 4.28504C8.66473 4.23174 8.59342 4.19175 8.5161 4.16768C8.43878 4.14361 8.3572 4.136 8.27671 4.14536L7.7849 4.23658C7.365 4.31354 7.33912 4.77533 7.54907 5.1858C7.59788 5.28759 7.6587 5.38327 7.73026 5.47086L8.95258 7.0643C8.97953 7.09369 9.01239 7.11718 9.04904 7.13325C9.08569 7.14932 9.12533 7.15762 9.1654 7.15762C9.20548 7.15762 9.24512 7.14932 9.28177 7.13325C9.31842 7.11718 9.35127 7.09369 9.37823 7.0643L9.52203 6.94743C9.58564 6.89782 9.63355 6.83116 9.66006 6.75537C9.68657 6.67958 9.69057 6.59783 9.67159 6.51985ZM7.89419 5.21716C7.86903 5.17851 7.84599 5.13855 7.82517 5.09744C7.6411 4.73542 7.70437 4.43897 7.86256 4.40476L8.34861 4.30214C8.48953 4.28504 8.72537 4.45607 8.88643 4.76108C8.90368 4.79528 8.91806 4.82949 8.93244 4.86369C8.94682 4.8979 8.85191 4.98912 8.66497 5.05468L8.32848 5.1744C8.10414 5.25422 7.9172 5.25422 7.89419 5.21716ZM9.12226 6.56546C9.0964 6.58148 9.06558 6.5877 9.03546 6.58299C9.00534 6.57827 8.97795 6.56294 8.95833 6.5398L8.33998 5.77586C8.32946 5.76492 8.32073 5.75242 8.31409 5.73881C8.2537 5.61908 8.3371 5.47941 8.50104 5.41385L8.7455 5.31408C8.8009 5.28272 8.86628 5.27352 8.92829 5.28836C8.99031 5.3032 9.04426 5.34095 9.07912 5.39389C9.0803 5.40622 9.0803 5.41862 9.07912 5.43095L9.31496 6.28611C9.32296 6.31595 9.32206 6.34745 9.31236 6.3768C9.30266 6.40614 9.28458 6.43207 9.26031 6.45144L9.12226 6.56546ZM9.34372 6.90752C9.307 6.88738 9.27577 6.8587 9.25272 6.82394C9.22967 6.78918 9.2155 6.74938 9.21142 6.70798C9.21142 6.62247 9.24881 6.57401 9.31496 6.59966C9.35162 6.61915 9.38287 6.64729 9.40595 6.68159C9.42902 6.7159 9.44321 6.75532 9.44726 6.79635C9.45588 6.87902 9.40987 6.93033 9.34372 6.90467V6.90752Z" fill="#9F9DA8"/>
</g>
<defs>
<clipPath id="clip0_442_8856">
<rect width="10" height="16" fill="white" transform="translate(7 4)"/>
</clipPath>
</defs>
</svg>
