<svg width="24" height="24" viewBox="0 0 24 24" fill="none" xmlns="http://www.w3.org/2000/svg">
<circle cx="12" cy="12" r="12" fill="#49FFDD"/>
<g clip-path="url(#clip0_442_8861)">
<path d="M20.759 13.8396C20.6997 13.8686 20.6354 13.8837 20.5703 13.8838C19.6321 13.8838 18.4915 10.9334 18.2972 9.66476L18.2617 9.43168C18.0565 8.05975 17.7474 5.98857 15.4881 4.19178L15.2556 4L15.2857 4.32159C15.3001 4.64312 15.2025 4.95885 15.0121 5.20671L14.7714 4.7199C14.7012 4.55499 14.5914 4.41333 14.4534 4.30958C14.3154 4.20583 14.1541 4.14377 13.9864 4.12982C13.8911 4.12823 13.7971 4.15258 13.7128 4.20063L11.1854 5.64632C11.1555 5.61709 11.1164 5.60126 11.076 5.60207C10.9902 5.61339 10.9078 5.64568 10.8353 5.69648L10.2363 6.03872C10.1926 6.0642 10.1437 6.07739 10.094 6.07708H10.0639C10.0806 6.0073 10.0823 5.93433 10.0688 5.86375C10.0553 5.79316 10.027 5.72685 9.98611 5.66989C9.94518 5.61293 9.89271 5.56683 9.83271 5.53513C9.77271 5.50343 9.70677 5.48696 9.63996 5.487C9.56771 5.48639 9.4964 5.50461 9.43208 5.54011C9.34236 5.59223 9.27261 5.67688 9.23513 5.77909C9.20694 5.77601 9.17853 5.77601 9.15034 5.77909C9.07796 5.78017 9.00679 5.79936 8.94246 5.83515C8.88972 5.86547 8.84348 5.9074 8.80673 5.95823C8.76997 6.00905 8.74353 6.06764 8.7291 6.13019C8.71127 6.18938 8.70498 6.25192 8.71063 6.31386C8.71628 6.37581 8.73374 6.43582 8.76192 6.49013C8.81389 6.59651 8.90217 6.67692 9.0081 6.71436C8.98299 6.77099 8.94179 6.8175 8.89048 6.84713L8.28871 7.18938C8.15468 7.26609 8.08357 7.3192 8.06168 7.40181C8.05646 7.42507 8.05646 7.44935 8.06168 7.47262L5.61631 8.8357C5.27166 9.03338 5.18413 9.58805 5.4221 10.0719L5.74487 10.7269C4.33344 11.4143 3.96965 11.671 3.99974 11.913C4.02435 12.0929 4.23224 12.1254 4.30336 12.1342C5.88711 12.3555 6.72958 15.0374 7.34229 16.9965C7.52753 17.683 7.77299 18.3488 8.07536 18.9851L8.19571 19.1916L8.30239 18.9792C8.40115 18.7926 8.51757 18.6176 8.64978 18.4569V19.6637C8.64978 19.9174 8.98896 19.9587 9.13119 19.9882H13.8195C14.1204 19.9616 14.3939 19.8967 14.3939 19.6725V18.7048L16.6588 19.5604L16.6834 19.5102L16.7682 19.5427L16.7354 19.4011L17.4657 17.8905C19.2902 17.6751 20.4746 16.371 20.9532 13.9989L21.0107 13.7216L20.759 13.8396ZM9.43208 6.5993C9.48665 6.55039 9.52897 6.4875 9.55517 6.41637C9.58336 6.41943 9.61177 6.41943 9.63996 6.41637C9.68548 6.41575 9.73066 6.4078 9.77399 6.39277L9.82049 6.41637L9.42387 6.65536L9.43208 6.5993Z" fill="#3F3B39"/>
<path d="M4.32271 11.9926C2.40799 11.7212 15.7235 7.38116 15.4172 4.32159C17.7586 6.1892 17.9637 8.38429 18.1525 9.70312C18.3412 11.0219 19.6788 14.5329 20.8003 13.9841C20.5951 14.9725 19.8839 18.3743 15.9123 17.7164C11.9406 17.0585 9.29825 16.728 8.17677 18.9231C7.37532 17.4833 6.66414 12.3231 4.32271 11.9926Z" fill="#E67E22"/>
<path d="M9.15863 6.67895C9.12206 6.78895 9.04896 6.88041 8.95348 6.93563L8.35171 7.28083C8.16024 7.38999 8.17939 7.4136 8.1958 7.44605C8.21221 7.47851 8.21768 7.50801 8.40916 7.39885L9.01092 7.05365C9.07712 7.01511 9.13545 6.9626 9.18244 6.89924C9.22944 6.83588 9.26413 6.76297 9.28446 6.68485C9.3419 6.46062 9.23249 6.28655 9.2024 6.30425C9.17231 6.32195 9.21881 6.49602 9.15863 6.67895Z" fill="#B76935"/>
<path d="M9.98224 6.20689C10.0865 6.23447 10.1965 6.21977 10.2913 6.16559L10.8931 5.82039C11.0846 5.71123 11.0928 5.74073 11.1065 5.77319C11.1201 5.80564 11.142 5.82924 10.9505 5.93841L10.3488 6.2836C10.2826 6.32184 10.2098 6.34498 10.135 6.35158C10.0602 6.35818 9.98491 6.3481 9.91386 6.32196C9.70871 6.25115 9.64033 6.05642 9.66495 6.02692C9.68956 5.99742 9.80992 6.15674 9.98224 6.20689Z" fill="#CE844D"/>
<path d="M16.875 9.44349C17.0774 9.8536 17.0173 10.3286 16.7383 10.4761L8.73472 15.061C8.46119 15.2204 8.0673 15.0168 7.86489 14.6067L5.61919 10.0483C5.41678 9.63822 5.47969 9.16321 5.75869 9.01569L13.7622 4.43077C14.0358 4.27145 14.4296 4.47503 14.6321 4.88513L16.875 9.44349Z" fill="#0B826B"/>
<path d="M13.7649 4.32749L5.67658 8.96257C5.40305 9.12189 5.33467 9.591 5.53708 10.007L7.80466 14.6214C7.86781 14.7857 7.97889 14.9232 8.12106 15.0132C8.26322 15.1031 8.42871 15.1407 8.59243 15.12C8.43906 15.1237 8.28812 15.0783 8.15863 14.9896C8.02915 14.9008 7.92692 14.7727 7.86484 14.6214L5.61914 10.0483C5.41673 9.63821 5.47964 9.16319 5.75864 9.01567L13.7622 4.43076C14.0357 4.27143 14.4296 4.47501 14.632 4.88512L16.875 9.44348C16.9578 9.58344 17.0002 9.74679 16.9968 9.91278C16.9933 10.0788 16.9443 10.2399 16.8558 10.3758C16.9635 10.2414 17.0276 10.0727 17.0385 9.89544C17.0493 9.71815 17.0063 9.54188 16.916 9.39332L14.6457 4.78775C14.4405 4.3747 14.0467 4.16817 13.7649 4.32749Z" fill="#B76935"/>
<path d="M13.7622 4.43077L5.75861 9.01569C5.48508 9.17501 5.4167 9.63822 5.61911 10.0483L7.02506 12.9014L7.05789 12.9692L11.4563 12.9869C12.2712 12.817 13.0201 12.3874 13.6062 11.7537L16.068 7.80012L16.0352 7.74997L14.632 4.88513C14.4296 4.47503 14.0412 4.27145 13.7622 4.43077Z" fill="#1ABC9C"/>
<path d="M13.0389 9.83017L10.3573 11.3661C10.1745 11.4708 10.1051 11.7156 10.2021 11.9127L10.4767 12.4704C10.5737 12.6675 10.8006 12.7425 10.9834 12.6378L13.6649 11.1018C13.8477 10.9971 13.9172 10.7524 13.8201 10.5552L13.5456 9.99759C13.4485 9.80043 13.2217 9.72547 13.0389 9.83017Z" fill="#CE844D"/>
<path d="M9.91093 5.79678C9.93975 5.85508 9.95186 5.92129 9.94573 5.98703C9.9396 6.05276 9.91551 6.11505 9.8765 6.16598C9.8375 6.21692 9.78534 6.25421 9.72666 6.27311C9.66797 6.29202 9.6054 6.2917 9.54688 6.27218C9.48837 6.25266 9.43655 6.21484 9.398 6.1635C9.35945 6.11216 9.33591 6.04963 9.33037 5.98383C9.32483 5.91804 9.33753 5.85195 9.36687 5.79396C9.39621 5.73597 9.44086 5.68869 9.49516 5.65812C9.56741 5.61743 9.65163 5.60918 9.7295 5.63515C9.80737 5.66112 9.87257 5.71921 9.91093 5.79678Z" fill="#B76935"/>
<path d="M9.42422 6.06528C9.45274 6.12355 9.46462 6.18964 9.45834 6.25518C9.45207 6.32073 9.42793 6.3828 9.38897 6.43356C9.35001 6.48431 9.29799 6.52148 9.23946 6.54036C9.18093 6.55924 9.11852 6.559 9.06012 6.53965C9.00173 6.5203 8.94995 6.48271 8.91135 6.43165C8.87274 6.38058 8.84903 6.31832 8.8432 6.25272C8.83738 6.18713 8.84971 6.12114 8.87864 6.0631C8.90756 6.00506 8.95178 5.95756 9.00572 5.92661C9.07838 5.8858 9.16301 5.87746 9.24132 5.90341C9.31963 5.92936 9.38533 5.98751 9.42422 6.06528Z" fill="#CE844D"/>
<path d="M18.0676 10.3286L13.092 8.44919L10.6631 13.4649L15.6386 15.3472L18.0676 10.3286Z" fill="#233849"/>
<path d="M16.5686 19.3214L11.5931 17.4391L10.6631 13.4649L15.6386 15.3472L16.5686 19.3214Z" fill="#48647A"/>
<path d="M19.011 14.3677L14.0355 12.4853L13.0918 8.44919L18.0673 10.3286L19.011 14.3677Z" fill="#48647A"/>
<path d="M19.0114 14.3677L14.0359 12.4854L11.6069 17.504L16.5825 19.3863L19.0114 14.3677Z" fill="#34495E"/>
<path d="M14.2519 16.3002C14.0436 16.1213 13.8445 15.9302 13.6556 15.7278C12.4006 14.3184 11.3228 12.7372 10.4498 11.0249C10.0751 10.2932 9.6757 9.56444 9.30096 8.81799C8.98576 9.37083 8.8025 9.99932 8.76758 10.6472V19.6725C8.76758 19.7669 8.90161 19.823 9.13411 19.8554H13.806C14.0796 19.823 14.2519 19.7669 14.2519 19.6725V16.3002Z" fill="#0B826B"/>
<path d="M13.6556 15.7278C12.4007 14.3184 11.3228 12.7372 10.4498 11.0249C10.1024 10.3434 9.73043 9.66477 9.37758 8.95963C9.13946 9.43101 9.00383 9.95463 8.98096 10.4909V19.2801C9.16696 19.3893 10.0751 19.3893 10.5839 19.3893H11.1747C12.0582 19.3893 13.8197 19.3893 14.0386 19.2772V16.1114C13.9073 15.9904 13.7787 15.8606 13.6556 15.7278Z" fill="#1ABC9C"/>
<path d="M13.6556 15.7278C12.4006 14.3184 11.3228 12.7372 10.4498 11.0249L10.3595 10.8538H8.76758V17.8137H14.2382V16.3002C14.0346 16.1208 13.8401 15.9298 13.6556 15.7278Z" fill="#34495E"/>
<g style="mix-blend-mode:overlay" opacity="0.6">
<path d="M10.1978 10.541L9.58231 9.36087C9.46021 9.77375 9.40018 10.205 9.40452 10.6384V19.7699L10.1759 19.7935V11.1134C10.1759 10.9069 10.1841 10.7181 10.1978 10.541Z" fill="white"/>
<path d="M13.6549 15.7278C13.5473 15.6098 13.4461 15.4888 13.3513 15.3649V19.7669H13.2583V19.7905L14.0324 19.7669V16.0966C13.9011 15.9845 13.7753 15.8606 13.6549 15.7278Z" fill="white"/>
</g>
</g>
<defs>
<clipPath id="clip0_442_8861">
<rect width="17" height="16" fill="white" transform="translate(4 4)"/>
</clipPath>
</defs>
</svg>
