<svg width="32" height="32" viewBox="0 0 32 32" fill="none" xmlns="http://www.w3.org/2000/svg">
<circle cx="16" cy="16" r="16" fill="#FFD5D1"/>
<g clip-path="url(#clip0_112_2515)">
<path d="M16.6722 26.1052C16.5315 26.1081 16.3945 26.043 16.2849 25.9213C14.0968 25.8276 12.0419 24.7135 11.9262 23.8874L11.9036 23.7139L12.0419 23.6896C12.7788 23.5681 14.1445 22.9329 15.0248 20.0383C15.7366 17.7024 15.1028 15.1791 14.4438 13.4437C13.7849 11.7083 11.9413 10.2402 11.9212 10.2263L11.7904 10.1222L11.8935 9.96598C12.2582 9.42106 13.5636 8.67137 15.0248 8.32429C14.6561 8.06577 14.3266 7.71235 14.054 7.28305C13.9962 7.19519 13.9349 7.11176 13.8704 7.03315L13.7522 6.90126L13.8805 6.77284C14.2863 6.31132 14.7868 6.037 15.3116 5.98843C16.1189 5.98843 16.5138 6.94291 16.6722 7.48435C16.825 6.84785 17.1394 6.3091 17.5576 5.96761L17.6003 5.92249C17.625 5.90398 17.6527 5.89443 17.6808 5.89472C17.8216 5.89472 17.9323 6.13421 17.965 6.20709C18.0287 6.33737 18.0548 6.49589 18.0379 6.65136C18.0339 6.68179 18.025 6.71061 18.0119 6.7358C17.9989 6.76099 17.982 6.78192 17.9625 6.79713L17.9348 6.81796H17.9172C17.522 7.10852 17.2073 7.57089 17.0218 8.13339C18.6617 8.21322 20.0048 8.95598 20.9152 10.2888L21.036 10.4658L20.8725 10.5595C20.8549 10.5595 19.1748 11.5417 18.4253 13.6832C17.7713 15.5366 18.0254 20.0209 18.5385 20.8643C19.2226 21.9889 19.9268 23.1551 20.8574 23.4987L21.0536 23.5716L20.9152 23.7763C20.0375 25.0605 18.707 25.8033 17.0696 25.9282C16.9953 26.0247 16.9014 26.0876 16.8005 26.1087C16.7578 26.1136 16.7149 26.1136 16.6722 26.1087V26.1052Z" fill="#3F3B39"/>
<path d="M16.7804 25.9248C16.969 25.8797 17.0596 25.72 17.047 25.6124C17.0344 25.5048 16.8684 25.4354 16.6773 25.4632C16.5351 25.4886 16.3952 25.534 16.2598 25.5985C16.305 25.7286 16.3819 25.8326 16.4771 25.8923C16.5723 25.9519 16.6797 25.9634 16.7804 25.9248Z" fill="#6B2F07"/>
<path d="M14.8488 11.6389C14.9318 11.7534 18.3171 19.4586 14.1571 23.1238C15.8875 24.7273 18.0128 24.1269 19.2578 22.9919C15.7567 19.3996 16.8835 14.1309 18.6164 11.7708C17.5349 11.0176 16.2346 10.9586 14.8488 11.6389Z" fill="#FFEEA4"/>
<path d="M16.1038 17.7163C16.0585 18.0148 15.9076 18.164 15.807 18.1432C15.7064 18.1224 15.6436 17.8655 15.6737 17.5636C15.7033 17.3362 15.7505 17.114 15.8146 16.9006C15.9286 16.961 16.0218 17.0786 16.0755 17.2299C16.1291 17.3813 16.1393 17.555 16.1038 17.7163Z" fill="#6B2F07"/>
<path d="M17.1476 17.6712C17.1853 17.9315 17.3186 18.0599 17.3991 18.0425C17.4796 18.0252 17.54 17.7996 17.5148 17.5358C17.492 17.3373 17.4532 17.1428 17.3991 16.9562C17.2991 17.0087 17.2173 17.1119 17.1706 17.2448C17.1238 17.3777 17.1156 17.5302 17.1476 17.6712Z" fill="#6B2F07"/>
<path d="M17.1099 8.91085C17.1099 9.00457 16.9338 9.08092 16.715 9.08092C16.4962 9.08092 16.3176 9.01845 16.3176 8.91085C16.3176 8.80326 16.4937 8.74078 16.7125 8.74078C16.9313 8.74078 17.1099 8.81714 17.1099 8.91085Z" fill="#B20616"/>
<path d="M16.6245 8.83797C16.6245 7.50865 17.0043 6.57847 17.6633 6.07867C17.8016 6.38411 17.9022 6.64442 17.9022 6.64442C17.9022 6.64442 16.8484 7.30387 16.7729 8.87268C16.7402 8.9178 16.6245 8.96292 16.6245 8.83797Z" fill="#6B2F07"/>
<path d="M11.9816 10.0805C11.9816 10.0805 13.8578 11.5764 14.542 13.3674C15.3116 15.3804 15.8146 17.8586 15.128 20.1042C14.2502 22.9815 12.887 23.7173 12.0419 23.8561C14.2678 25.7582 18.5812 25.6506 20.8222 23.6444C19.8614 23.2973 19.1396 22.1034 18.4404 20.9546C17.877 20.0209 17.6657 15.4325 18.3297 13.593C19.1094 11.3855 20.8448 10.4033 20.8448 10.4033C20.8448 10.4033 16.9238 7.73424 11.9816 10.0805Z" fill="#EFD978"/>
<path d="M16.7804 25.9248C16.969 25.8797 17.0596 25.72 17.047 25.6124C17.0344 25.5048 16.8684 25.4354 16.6773 25.4632C16.5351 25.4886 16.3952 25.534 16.2598 25.5985C16.305 25.7286 16.3819 25.8326 16.4771 25.8923C16.5723 25.9519 16.6797 25.9634 16.7804 25.9248Z" fill="#6B2F07"/>
<path d="M11.9816 10.0806C12.6959 9.01849 18.1537 6.49174 20.8272 10.4068C19.5898 10.3235 18.6164 11.7743 18.6164 11.7743C17.1074 11.0801 15.5983 11.5799 14.8438 11.6424C14.1571 10.3513 12.1048 10.0597 11.9816 10.0806Z" fill="#E74C3C"/>
<path d="M12.0419 23.8562C12.1953 25.0849 18.1486 27.5561 20.8221 23.6445C19.5847 23.7278 18.6113 22.277 18.6113 22.277C17.1023 22.9711 15.5932 22.4713 14.8387 22.4054C14.471 22.9019 14.0325 23.2874 13.551 23.5371C13.0694 23.7869 12.5555 23.8956 12.0419 23.8562Z" fill="#E74C3C"/>
<path d="M14.8488 11.6389C14.9318 11.7534 18.3171 19.4586 14.1571 23.1238C15.8875 24.7273 18.0128 24.1269 19.2578 22.9919C15.7567 19.3996 16.8835 14.1309 18.6164 11.7708C17.5349 11.0176 16.2346 10.9586 14.8488 11.6389Z" fill="#FFEEA4"/>
<path d="M16.1038 17.7163C16.0585 18.0148 15.9076 18.164 15.807 18.1432C15.7064 18.1224 15.6436 17.8655 15.6737 17.5636C15.7033 17.3362 15.7505 17.114 15.8146 16.9006C15.9286 16.961 16.0218 17.0786 16.0755 17.2299C16.1291 17.3813 16.1393 17.555 16.1038 17.7163Z" fill="#6B2F07"/>
<path d="M17.1476 17.6712C17.1853 17.9315 17.3186 18.0599 17.3991 18.0425C17.4796 18.0252 17.54 17.7996 17.5148 17.5358C17.492 17.3373 17.4532 17.1428 17.3991 16.9562C17.2991 17.0087 17.2173 17.1119 17.1706 17.2448C17.1238 17.3777 17.1156 17.5302 17.1476 17.6712Z" fill="#6B2F07"/>
<path d="M17.1099 8.91085C17.1099 9.00457 16.9338 9.08092 16.715 9.08092C16.4962 9.08092 16.3176 9.01845 16.3176 8.91085C16.3176 8.80326 16.4937 8.74078 16.7125 8.74078C16.9313 8.74078 17.1099 8.81714 17.1099 8.91085Z" fill="#B20616"/>
<path d="M16.705 8.84839C16.6798 8.42148 16.6346 7.88698 16.6346 7.88698C16.6346 7.88698 16.0988 4.76325 13.9509 6.90821C14.2779 7.27612 15.133 9.06705 16.4811 8.08829C16.5543 8.35449 16.6082 8.63002 16.6421 8.91087L16.705 8.84839Z" fill="#198444"/>
<path d="M16.6245 8.83797C16.6245 7.50865 17.0043 6.57847 17.6633 6.07867C17.8016 6.38411 17.9022 6.64442 17.9022 6.64442C17.9022 6.64442 16.8484 7.30387 16.7729 8.87268C16.7402 8.9178 16.6245 8.96292 16.6245 8.83797Z" fill="#934D2B"/>
<path d="M17.8569 6.30084C17.9248 6.4605 17.9449 6.61668 17.9022 6.64792C17.8594 6.67916 17.7689 6.58197 17.7009 6.42579C17.633 6.2696 17.6154 6.10994 17.6582 6.07871C17.7009 6.04747 17.789 6.14465 17.8569 6.30084Z" fill="#A55E37"/>
</g>
<defs>
<clipPath id="clip0_112_2515">
<rect width="9.26316" height="20.2105" fill="white" transform="translate(11.7904 5.89471)"/>
</clipPath>
</defs>
</svg>
