<svg width="32" height="32" viewBox="0 0 32 32" fill="none" xmlns="http://www.w3.org/2000/svg">
<circle cx="16" cy="16" r="16" fill="#C9EFFF"/>
<g clip-path="url(#clip0_95_693)">
<path d="M8.5923 21.1109V20.6608L5.33337 18.5264L10.8628 15.0875L12.2659 13.681L13.7001 15.0875L14.6159 15.6818C15.026 15.4205 15.4689 15.2171 15.9327 15.077C15.8435 14.9007 15.7895 14.7083 15.7737 14.5108L15.67 6.73983L16.6722 6.12799V5.61462L17.156 5.33331L26.487 10.3968L26.6494 20.5378C26.6591 20.7828 26.6029 21.026 26.487 21.241C26.3576 21.4752 26.1721 21.6723 25.9479 21.8142L25.5193 22.0709C25.3986 22.1468 25.2604 22.1893 25.1185 22.1939C25.0794 22.1977 25.04 22.1977 25.001 22.1939C24.8865 22.3568 24.7407 22.4944 24.5724 22.5983L23.9262 22.9745L17.6675 26.6666L8.5923 21.1109Z" fill="#3F3B39"/>
<path d="M24.3409 21.1566C23.9906 20.7937 23.6661 20.4059 23.3698 19.9962L15.8186 16.7999L9.21094 19.191V20.6784L17.6123 25.8333L24.2165 21.9407C24.4118 21.8165 24.5574 21.6259 24.6278 21.4028C24.5264 21.3279 24.4305 21.2456 24.3409 21.1566Z" fill="white"/>
<path d="M23.235 20.5694L25.0908 21.3887L25.0321 21.8845L26.2762 21.0617L26.214 20.7347L25.236 20.2776C25.236 20.2776 24.6001 19.6024 23.235 20.5694Z" fill="#1A7299"/>
<path d="M25.0907 21.3887L18.2688 25.4183L9.38708 19.9821L16.6652 17.366L25.0907 21.3887Z" fill="#1A7299"/>
<path d="M22.8203 21.2656L24.4791 22.1834L24.8731 21.881L24.8144 21.5539L23.8364 21.0968C23.8364 21.0968 24.1854 20.2951 22.8203 21.2656Z" fill="#1A7299"/>
<path d="M24.493 22.4084L17.671 26.4381L8.78931 20.9984V20.6538L24.493 22.0638V22.4084Z" fill="#3498DB"/>
<path d="M17.671 26.09V26.4381L8.78931 20.9984V20.6538L17.671 26.09Z" fill="#288DC6"/>
<path d="M24.493 22.0638L17.671 26.09L8.78931 20.6538L16.0675 18.0377L24.493 22.0638Z" fill="#1A7299"/>
<path d="M24.0713 20.3654L15.8186 16.7999L9.21094 19.191V20.6784L17.6123 25.8333C17.6123 25.8333 22.7581 22.8796 23.5288 22.2959C24.2994 21.7122 24.9492 21.0617 25.1185 21.4063L25.9479 20.9421C24.9906 19.8556 24.0713 20.3654 24.0713 20.3654Z" fill="#EAEAEA"/>
<path d="M17.6261 24.2228L9.21094 19.191L9.21785 20.6819L17.6123 25.8333L17.6261 24.2228Z" fill="#CCCCCC"/>
<path d="M24.0714 20.3655L17.5846 24.1982L9.21094 19.191L13.9283 16.3534L24.0714 20.3655Z" fill="#F9F9F9"/>
<path d="M25.4606 20.1193C25.487 19.9703 25.5311 19.825 25.5919 19.6868L17.1767 14.6304C17.0824 14.8639 17.0479 15.118 17.0765 15.3688C17.9751 16.3041 23.5322 19.3985 25.426 20.4885C25.4294 20.3648 25.441 20.2415 25.4606 20.1193Z" fill="#EFEFEF"/>
<path d="M26.4663 20.5413L26.3315 20.601L26.176 20.7206V20.805C26.1448 20.9165 26.0921 21.0206 26.0208 21.1112C25.9496 21.2018 25.8614 21.277 25.7613 21.3324L25.4813 21.4977L25.4157 21.5364C25.1703 21.6805 25.0874 21.6313 25.0874 21.3817L24.8074 21.5399C24.7395 21.7746 24.5896 21.976 24.3858 22.106L24.1128 22.2678V22.6194L24.4826 22.3979C24.6727 22.2781 24.8296 22.1111 24.9388 21.9126C25.0132 21.9607 25.1005 21.9839 25.1886 21.9788C25.2766 21.9738 25.3609 21.9408 25.4295 21.8845L25.4779 21.8528L25.858 21.6243C26.0551 21.5028 26.2173 21.3306 26.328 21.125C26.4233 20.946 26.471 20.7448 26.4663 20.5413Z" fill="#3498DB"/>
<path d="M23.3905 20.7698L17.626 24.2228L9.2489 19.2156L17.6398 23.7868L23.3905 20.7698Z" fill="white"/>
<path d="M25.3258 19.0785C24.8404 18.9586 24.3473 18.874 23.8501 18.8253L17.2839 13.9025L15.8669 6.86992L17.118 6.09985L25.7578 10.78L25.9167 18.5686C25.9135 18.8038 25.8291 19.0303 25.6783 19.2086C25.5644 19.1557 25.4465 19.1122 25.3258 19.0785Z" fill="white"/>
<path d="M26.4697 20.5729L26.3108 10.5163L17.163 5.56189L16.8727 5.74122L26.176 20.7523L26.4697 20.5729Z" fill="#3498DB"/>
<path d="M26.0205 10.6957L26.3108 10.5163L17.163 5.56189L16.8727 5.74122L26.0205 10.6957Z" fill="#62BFF4"/>
<path d="M26.176 20.7523L26.0205 10.6957L16.8727 5.74121L16.7587 15.629L26.176 20.7523Z" fill="#1A7299"/>
<path d="M24.5413 19.2578L17.2839 13.8849L15.8669 6.85234L17.118 6.09985L25.7578 10.78C25.7578 10.78 25.8649 16.8034 25.858 17.7845C25.858 19.8696 25.9306 20.9491 25.9306 20.9491C25.5442 20.8706 25.1957 20.6601 24.9431 20.3525C24.6904 20.0449 24.5486 19.6586 24.5413 19.2578Z" fill="#EAEAEA"/>
<path d="M24.4341 11.6239L15.8669 6.8664L17.118 6.09985L25.775 10.78L24.4341 11.6239Z" fill="#CCCCCC"/>
<path d="M24.5413 19.2579L24.3892 11.5994L15.8669 6.86646L15.9568 14.5144L24.5413 19.2579Z" fill="#EFEFEF"/>
<path d="M24.5378 19.1206C24.603 19.7526 24.9035 20.3351 25.3776 20.7487C25.1426 21.7227 17.0108 15.8821 16.8691 15.8013C16.6223 15.6841 16.4089 15.5047 16.2492 15.2801C16.0896 15.0554 15.9889 14.7931 15.9568 14.5178L19.779 15.5551L24.5378 19.1206Z" fill="#EFEFEF"/>
<path d="M24.524 18.4526L24.4342 11.624L15.9084 6.88751L24.0748 11.8631L24.524 18.4526Z" fill="white"/>
<path d="M23.4907 20.7101C24.0652 20.5437 24.6796 20.5962 25.2187 20.8577C25.0321 20.6819 16.3923 15.3301 16.254 15.2774C15.7599 15.1086 13.9282 16.3534 13.9282 16.3534L18.0373 18.1889L23.4907 20.7101Z" fill="#F9F9F9"/>
<path d="M16.1504 23.3437L21.2651 20.2459L14.6021 15.9314L9.30078 19.1172L16.1504 23.3437Z" fill="#CCCCCC"/>
<path d="M13.5515 15.2422L12.2556 13.9658L10.97 15.2422H13.5515Z" fill="#CCCCCC"/>
<path d="M13.5515 15.2422H10.97L5.69971 18.5299L14.4812 24.2826L21.0751 20.172L13.5515 15.2422Z" fill="#FCFCFC"/>
</g>
<defs>
<clipPath id="clip0_95_693">
<rect width="21.3333" height="21.3333" fill="white" transform="translate(5.33337 5.33331)"/>
</clipPath>
</defs>
</svg>
