<svg width="44" height="44" viewBox="0 0 44 44" fill="none" xmlns="http://www.w3.org/2000/svg">
<circle cx="22" cy="22" r="22" fill="#FFE168"/>
<g clip-path="url(#clip0_155_2279)">
<path d="M21.5059 36.6667C21.1958 36.6614 20.8915 36.5837 20.6179 36.44C20.3444 36.2964 20.1095 36.0909 19.9325 35.8405C19.8564 35.8582 19.7783 35.8671 19.7001 35.8669H18.9268C17.9301 35.8669 16.9467 34.5793 16.7635 33.0808C16.6428 32.0305 16.5355 29.8904 16.4998 28.7698C16.4906 28.2721 16.5708 27.7767 16.7367 27.3064V20.5169C16.5783 20.0402 16.4983 19.5418 16.4998 19.0403V16.6937C16.4998 15.1204 17.6395 13.9471 18.7346 12.8133C19.1389 12.4106 19.5223 11.9882 19.8833 11.5477C19.9838 11.3739 20.0333 11.1762 20.0264 10.9764C19.914 10.9524 19.8133 10.8914 19.741 10.8035C19.6687 10.7156 19.629 10.6061 19.6286 10.493C19.6302 10.3859 19.6679 10.2823 19.7358 10.1986V8.16833L19.7805 7.82995V7.79919C19.7805 7.79919 19.7805 7.75964 19.8163 7.72449C19.8441 7.67982 19.8771 7.63852 19.9146 7.60144C19.9391 7.57152 19.966 7.5436 19.9951 7.51794C20.038 7.48393 20.0844 7.45447 20.1337 7.43005C20.16 7.41205 20.1885 7.39729 20.2186 7.38611C20.3051 7.35139 20.3977 7.33348 20.4912 7.33337H23.5798C23.6732 7.33433 23.7656 7.3522 23.8525 7.38611L23.9061 7.41248C23.9592 7.44024 24.0087 7.47417 24.0536 7.51355C24.0851 7.5364 24.1136 7.56297 24.1385 7.59265C24.167 7.62866 24.1924 7.66687 24.2145 7.70691C24.2374 7.74314 24.2569 7.78139 24.2726 7.82116L24.3218 10.3128C24.3443 10.3673 24.3564 10.4254 24.3575 10.4842C24.3563 10.5971 24.3164 10.7062 24.2442 10.794C24.172 10.8817 24.0717 10.9429 23.9597 10.9676C23.95 11.1699 23.998 11.3708 24.0983 11.5477C24.4594 11.9882 24.8428 12.4106 25.247 12.8133C26.3466 13.9471 27.4819 15.1204 27.4819 16.6937V19.0403C27.4894 19.5409 27.4155 20.0393 27.2629 20.5169V27.3064C27.4272 27.7771 27.5074 28.2722 27.4998 28.7698C27.4685 29.864 27.3835 32.0041 27.2629 33.0808C27.093 34.5617 26.0873 35.8669 25.104 35.8669H24.3263C24.2405 35.8653 24.1551 35.855 24.0715 35.8361C23.8948 36.0882 23.6595 36.2951 23.385 36.4396C23.1106 36.584 22.805 36.6619 22.4937 36.6667H21.5059Z" fill="#3F3B39"/>
<path d="M27.0173 20.5916V20.4598C27.174 20.0024 27.254 19.523 27.2542 19.0403V16.6937C27.2542 14.6414 25.1311 13.2484 23.9242 11.6927C23.7619 11.4051 23.6962 11.0744 23.7365 10.7479H23.8706C23.9393 10.7479 24.0053 10.7211 24.0539 10.6733C24.1025 10.6255 24.1298 10.5606 24.1298 10.493C24.1311 10.4514 24.1202 10.4102 24.0985 10.3744V8.08044C24.0968 8.02783 24.0862 7.97587 24.0673 7.92664C24.058 7.89918 24.046 7.87268 24.0315 7.84754L23.9689 7.77283C23.9519 7.75165 23.9324 7.73249 23.9108 7.7157C23.884 7.6913 23.8539 7.6706 23.8214 7.65418L23.7633 7.61023C23.7049 7.58761 23.6428 7.5757 23.5801 7.57508H20.4915C20.4286 7.57484 20.3664 7.58679 20.3082 7.61023L20.2501 7.64099C20.2156 7.65629 20.1839 7.67707 20.1562 7.70252L20.1026 7.77283C20.0808 7.79479 20.0627 7.82 20.049 7.84754C20.0329 7.87251 20.0194 7.89901 20.0087 7.92664C19.9919 7.97644 19.9814 8.0281 19.9775 8.08044V10.2777C19.9467 10.3013 19.9216 10.3313 19.9038 10.3654C19.8861 10.3996 19.8761 10.4371 19.8747 10.4755C19.8747 10.5431 19.902 10.6079 19.9506 10.6557C19.9992 10.7035 20.0651 10.7303 20.1339 10.7303H20.268C20.3105 11.0631 20.2431 11.4005 20.0758 11.6927C18.869 13.2484 16.7458 14.6414 16.7458 16.6937V19.0403C16.746 19.523 16.826 20.0024 16.9827 20.4598V27.346C16.8196 27.8018 16.7394 28.2822 16.7458 28.7654C16.7816 29.8377 16.8844 31.9866 17.0096 33.05C17.1749 34.4826 18.1136 35.6252 18.9271 35.6252H19.7003C19.8144 35.6248 19.9271 35.6009 20.0311 35.5549C20.1797 35.8135 20.3934 36.0301 20.6517 36.184C20.91 36.338 21.2042 36.424 21.5061 36.4338H22.4939C22.7968 36.423 23.0918 36.3366 23.3514 36.1829C23.611 36.0291 23.8265 35.813 23.9779 35.5549C24.0861 35.6079 24.2056 35.635 24.3265 35.634H25.1042C25.9177 35.634 26.8564 34.4914 27.0217 33.0588C27.1424 31.9954 27.2229 29.8464 27.2542 28.7742C27.2606 28.291 27.1804 27.8105 27.0173 27.3548V20.5916Z" fill="#0A0A0A"/>
<path d="M24.0985 10.4887V8.08046C24.0985 8.01372 24.0851 7.94765 24.059 7.88604C24.0329 7.82444 23.9946 7.76853 23.9464 7.72155C23.8982 7.67456 23.841 7.63743 23.7781 7.61229C23.7152 7.58716 23.6479 7.57451 23.58 7.57509H20.4914C20.4236 7.57451 20.3563 7.58716 20.2934 7.61229C20.2305 7.63743 20.1733 7.67456 20.1251 7.72155C20.0769 7.76853 20.0386 7.82444 20.0125 7.88604C19.9864 7.94765 19.973 8.01372 19.973 8.08046V10.4887H24.0985Z" fill="#F1C40F"/>
<path d="M24.0672 7.92663C24.0342 7.82496 23.9693 7.73618 23.8817 7.67302C23.7942 7.60987 23.6886 7.57558 23.58 7.57507H20.4915C20.3823 7.57533 20.276 7.60945 20.1877 7.67257C20.0994 7.7357 20.0337 7.82461 19.9998 7.92663H24.0672Z" fill="#FFDE52"/>
<path d="M20.7865 10.1195C20.7865 10.131 20.7842 10.1425 20.7797 10.1531C20.7752 10.1638 20.7686 10.1735 20.7603 10.1816C20.752 10.1898 20.7421 10.1963 20.7313 10.2007C20.7204 10.2051 20.7088 10.2074 20.6971 10.2074C20.6742 10.2063 20.6525 10.1965 20.6367 10.1801C20.6209 10.1638 20.6121 10.1421 20.6122 10.1195V8.09802C20.6121 8.07545 20.6209 8.05374 20.6367 8.03738C20.6525 8.02102 20.6742 8.01126 20.6971 8.01013C20.7208 8.01013 20.7435 8.01939 20.7603 8.03587C20.7771 8.05236 20.7865 8.07471 20.7865 8.09802V10.1195Z" fill="#FFDE52"/>
<path d="M21.1441 10.1195C21.1441 10.131 21.1417 10.1425 21.1373 10.1531C21.1328 10.1638 21.1262 10.1735 21.1179 10.1816C21.1096 10.1898 21.0997 10.1963 21.0889 10.2007C21.078 10.2051 21.0664 10.2074 21.0547 10.2074C21.0429 10.2074 21.0313 10.2051 21.0205 10.2007C21.0096 10.1963 20.9998 10.1898 20.9915 10.1816C20.9832 10.1735 20.9766 10.1638 20.9721 10.1531C20.9676 10.1425 20.9653 10.131 20.9653 10.1195V8.09802C20.9653 8.07471 20.9747 8.05236 20.9915 8.03587C21.0082 8.01939 21.031 8.01013 21.0547 8.01013C21.0784 8.01013 21.1011 8.01939 21.1179 8.03587C21.1346 8.05236 21.1441 8.07471 21.1441 8.09802V10.1195Z" fill="#FFDE52"/>
<path d="M21.4972 10.1195C21.4972 10.1421 21.4884 10.1638 21.4726 10.1801C21.4568 10.1965 21.4352 10.2063 21.4122 10.2074C21.4005 10.2074 21.3889 10.2051 21.378 10.2007C21.3672 10.1963 21.3573 10.1898 21.349 10.1816C21.3407 10.1735 21.3341 10.1638 21.3297 10.1531C21.3252 10.1425 21.3228 10.131 21.3228 10.1195V8.09802C21.3228 8.07471 21.3323 8.05236 21.349 8.03587C21.3658 8.01939 21.3885 8.01013 21.4122 8.01013C21.4352 8.01126 21.4568 8.02102 21.4726 8.03738C21.4884 8.05374 21.4972 8.07545 21.4972 8.09802V10.1195Z" fill="#FFDE52"/>
<path d="M21.8637 10.1195C21.8637 10.131 21.8614 10.1425 21.8569 10.1531C21.8524 10.1638 21.8458 10.1735 21.8375 10.1816C21.8292 10.1898 21.8194 10.1963 21.8085 10.2007C21.7977 10.2051 21.786 10.2074 21.7743 10.2074C21.7626 10.2074 21.7509 10.2051 21.7401 10.2007C21.7292 10.1963 21.7194 10.1898 21.7111 10.1816C21.7028 10.1735 21.6962 10.1638 21.6917 10.1531C21.6872 10.1425 21.6849 10.131 21.6849 10.1195V8.09802C21.6849 8.07471 21.6943 8.05236 21.7111 8.03587C21.7279 8.01939 21.7506 8.01013 21.7743 8.01013C21.798 8.01013 21.8207 8.01939 21.8375 8.03587C21.8543 8.05236 21.8637 8.07471 21.8637 8.09802V10.1195Z" fill="#FFDE52"/>
<path d="M22.2749 10.1195C22.2749 10.1428 22.2655 10.1652 22.2487 10.1816C22.2319 10.1981 22.2092 10.2074 22.1855 10.2074C22.1618 10.2074 22.139 10.1981 22.1223 10.1816C22.1055 10.1652 22.0961 10.1428 22.0961 10.1195V8.09802C22.0961 8.07471 22.1055 8.05236 22.1223 8.03587C22.139 8.01939 22.1618 8.01013 22.1855 8.01013C22.2092 8.01013 22.2319 8.01939 22.2487 8.03587C22.2655 8.05236 22.2749 8.07471 22.2749 8.09802V10.1195Z" fill="#FFDE52"/>
<path d="M22.6906 10.1195C22.6906 10.131 22.6883 10.1425 22.6838 10.1531C22.6793 10.1638 22.6727 10.1735 22.6644 10.1816C22.6561 10.1898 22.6462 10.1963 22.6354 10.2007C22.6246 10.2051 22.6129 10.2074 22.6012 10.2074C22.5896 10.2074 22.5782 10.2051 22.5676 10.2006C22.557 10.1962 22.5474 10.1896 22.5395 10.1814C22.5316 10.1732 22.5254 10.1634 22.5214 10.1528C22.5174 10.1422 22.5157 10.1308 22.5163 10.1195V8.09802C22.5157 8.08669 22.5174 8.07536 22.5214 8.06472C22.5254 8.05408 22.5316 8.04434 22.5395 8.03612C22.5474 8.0279 22.557 8.02135 22.5676 8.01688C22.5782 8.01241 22.5896 8.01012 22.6012 8.01013C22.6249 8.01013 22.6476 8.01939 22.6644 8.03587C22.6812 8.05236 22.6906 8.07471 22.6906 8.09802V10.1195Z" fill="#FFDE52"/>
<path d="M23.0705 10.1195C23.0711 10.1308 23.0694 10.1422 23.0654 10.1528C23.0614 10.1634 23.0552 10.1732 23.0473 10.1814C23.0393 10.1896 23.0297 10.1962 23.0191 10.2006C23.0085 10.2051 22.9971 10.2074 22.9856 10.2074C22.9738 10.2074 22.9622 10.2051 22.9514 10.2007C22.9405 10.1963 22.9307 10.1898 22.9224 10.1816C22.9141 10.1735 22.9075 10.1638 22.903 10.1531C22.8985 10.1425 22.8962 10.131 22.8962 10.1195V8.09802C22.8962 8.07471 22.9056 8.05236 22.9224 8.03587C22.9391 8.01939 22.9619 8.01013 22.9856 8.01013C22.9971 8.01012 23.0085 8.01241 23.0191 8.01688C23.0297 8.02135 23.0393 8.0279 23.0473 8.03612C23.0552 8.04434 23.0614 8.05408 23.0654 8.06472C23.0694 8.07536 23.0711 8.08669 23.0705 8.09802V10.1195Z" fill="#FFDE52"/>
<path d="M23.4549 10.1195C23.4549 10.131 23.4526 10.1425 23.4481 10.1531C23.4436 10.1638 23.437 10.1735 23.4287 10.1816C23.4204 10.1898 23.4106 10.1963 23.3997 10.2007C23.3889 10.2051 23.3773 10.2074 23.3655 10.2074C23.3538 10.2074 23.3422 10.2051 23.3313 10.2007C23.3205 10.1963 23.3106 10.1898 23.3023 10.1816C23.294 10.1735 23.2874 10.1638 23.2829 10.1531C23.2784 10.1425 23.2761 10.131 23.2761 10.1195V8.09802C23.2761 8.07471 23.2855 8.05236 23.3023 8.03587C23.3191 8.01939 23.3418 8.01013 23.3655 8.01013C23.3892 8.01013 23.412 8.01939 23.4287 8.03587C23.4455 8.05236 23.4549 8.07471 23.4549 8.09802V10.1195Z" fill="#FFDE52"/>
<path d="M23.7946 10.1195C23.7959 10.1409 23.7887 10.162 23.7745 10.1784C23.7604 10.1948 23.7403 10.2052 23.7186 10.2074C23.708 10.2063 23.6978 10.2031 23.6884 10.1981C23.6791 10.1931 23.6708 10.1863 23.6642 10.1781C23.6575 10.17 23.6526 10.1606 23.6497 10.1505C23.6467 10.1404 23.6459 10.1299 23.6471 10.1195V8.09802C23.6459 8.08762 23.6467 8.07709 23.6497 8.06702C23.6526 8.05696 23.6575 8.04756 23.6642 8.03939C23.6708 8.03121 23.6791 8.02442 23.6884 8.01939C23.6978 8.01437 23.708 8.01122 23.7186 8.01013C23.7403 8.01236 23.7604 8.02273 23.7745 8.0391C23.7887 8.05547 23.7959 8.07657 23.7946 8.09802V10.1195Z" fill="#FFDE52"/>
<path d="M24.0494 10.1195C24.0494 10.1678 24.0226 10.2074 23.9868 10.2074C23.951 10.2074 23.9242 10.1678 23.9242 10.1195V8.09802C23.9242 8.04968 23.951 8.01013 23.9868 8.01013C24.0226 8.01013 24.0494 8.04968 24.0494 8.09802V10.1195Z" fill="#FFDE52"/>
<path d="M20.2814 8.09802C20.2814 8.04968 20.3127 8.01013 20.3484 8.01013C20.359 8.01122 20.3693 8.01437 20.3786 8.01939C20.388 8.02442 20.3962 8.03121 20.4029 8.03939C20.4095 8.04756 20.4145 8.05696 20.4174 8.06702C20.4203 8.07709 20.4212 8.08762 20.42 8.09802V10.1195C20.4212 10.1299 20.4203 10.1404 20.4174 10.1505C20.4145 10.1606 20.4095 10.17 20.4029 10.1781C20.3962 10.1863 20.388 10.1931 20.3786 10.1981C20.3693 10.2031 20.359 10.2063 20.3484 10.2074C20.3127 10.2074 20.2814 10.1678 20.2814 10.1195V8.09802Z" fill="#FFDE52"/>
<path d="M20.0266 8.09802C20.0266 8.04968 20.0534 8.01013 20.0892 8.01013H20.0758C20.1115 8.01013 20.1384 8.04968 20.1384 8.09802V10.1195C20.1384 10.1678 20.1115 10.2074 20.0758 10.2074C20.04 10.2074 20.0132 10.1678 20.0132 10.1195L20.0266 8.09802Z" fill="#FFDE52"/>
<path d="M27.2542 19.0403V16.6936C27.2542 14.6414 25.1311 13.2483 23.9242 11.6927C23.7619 11.405 23.6962 11.0744 23.7365 10.7478H23.8706C23.9393 10.7478 24.0053 10.721 24.0539 10.6732C24.1025 10.6254 24.1298 10.5606 24.1298 10.493C24.1298 10.4597 24.1231 10.4268 24.11 10.3961C24.0969 10.3654 24.0778 10.3376 24.0536 10.3143C24.0295 10.2909 24.0009 10.2726 23.9695 10.2603C23.938 10.2479 23.9044 10.2419 23.8706 10.2425H20.1294C20.0956 10.2419 20.062 10.2479 20.0306 10.2603C19.9991 10.2726 19.9705 10.2909 19.9464 10.3143C19.9222 10.3376 19.9031 10.3654 19.89 10.3961C19.8769 10.4268 19.8702 10.4597 19.8702 10.493C19.8702 10.5606 19.8975 10.6254 19.9461 10.6732C19.9947 10.721 20.0607 10.7478 20.1294 10.7478H20.2635C20.3035 11.0743 20.2378 11.4049 20.0758 11.6927C18.869 13.2483 16.7458 14.6414 16.7458 16.6936V19.0403C16.746 19.5229 16.826 20.0023 16.9827 20.4597V27.3459C16.8196 27.8017 16.7394 28.2822 16.7458 28.7653C16.7816 29.8376 16.8844 31.9865 17.0096 33.05C17.1749 34.4826 18.1136 35.6251 18.9271 35.6251H19.7003C19.8144 35.6248 19.9271 35.6008 20.0311 35.5548C20.1797 35.8134 20.3934 36.03 20.6517 36.184C20.91 36.3379 21.2042 36.4239 21.5061 36.4337H22.4939C22.7968 36.4229 23.0918 36.3365 23.3514 36.1828C23.611 36.0291 23.8265 35.813 23.9779 35.5548C24.0861 35.6078 24.2056 35.6349 24.3265 35.6339H25.1042C25.9177 35.6339 26.8564 34.4914 27.0217 33.0588C27.1424 31.9953 27.2229 29.8464 27.2542 28.7741C27.2606 28.291 27.1804 27.8105 27.0173 27.3547V20.4597C27.174 20.0023 27.254 19.5229 27.2542 19.0403Z" fill="#3E6C6D"/>
<path d="M27.1469 19.0096V16.6673C27.1469 14.6239 25.0685 13.2396 23.884 11.6883C23.7249 11.3996 23.6609 11.0695 23.7007 10.7435H23.8348C23.9024 10.7435 23.9672 10.7171 24.015 10.6702C24.0627 10.6232 24.0896 10.5595 24.0896 10.493C24.0896 10.4266 24.0627 10.3629 24.015 10.3159C23.9672 10.2689 23.9024 10.2426 23.8348 10.2426H20.1652C20.0976 10.2426 20.0328 10.2689 19.985 10.3159C19.9372 10.3629 19.9104 10.4266 19.9104 10.493C19.9104 10.5595 19.9372 10.6232 19.985 10.6702C20.0328 10.7171 20.0976 10.7435 20.1652 10.7435H20.2993C20.3391 11.0695 20.2751 11.3996 20.116 11.6883C18.9315 13.2396 16.8531 14.6239 16.8531 16.6673V19.0096C16.8525 19.4905 16.931 19.9684 17.0855 20.4246V27.2845C16.9216 27.7369 16.8428 28.2149 16.8531 28.6951C16.8844 29.7673 16.9872 31.9075 17.1079 32.9666C17.2732 34.3948 18.1895 35.5329 18.9896 35.5329H19.7495C19.8624 35.5308 19.9735 35.5054 20.0758 35.4582C20.2196 35.715 20.4286 35.9309 20.6823 36.0849C20.9361 36.2389 21.226 36.3258 21.524 36.3371H22.485C22.7842 36.326 23.0754 36.2393 23.3306 36.0854C23.5858 35.9314 23.7964 35.7154 23.9421 35.4582C24.0488 35.5112 24.1668 35.5383 24.2863 35.5373H25.0461C25.8417 35.5373 26.767 34.3992 26.9234 32.9709C27.0441 31.9119 27.1245 29.7717 27.1513 28.6995C27.1583 28.2199 27.0811 27.7427 26.9234 27.2888V20.4246C27.0728 19.9674 27.1482 19.4899 27.1469 19.0096Z" fill="#AFDCE0"/>
<path d="M23.9197 10.4622C23.9204 10.4797 23.9173 10.4971 23.9108 10.5134C23.9043 10.5297 23.8944 10.5445 23.8819 10.5568C23.8693 10.5692 23.8542 10.5789 23.8377 10.5853C23.8211 10.5917 23.8034 10.5947 23.7857 10.5941H20.1071C20.0891 10.5947 20.0712 10.5917 20.0544 10.5853C20.0376 10.579 20.0223 10.5693 20.0093 10.557C19.9964 10.5447 19.9861 10.53 19.9791 10.5137C19.9721 10.4974 19.9685 10.4799 19.9685 10.4622C19.9685 10.4445 19.9721 10.427 19.9791 10.4107C19.9861 10.3945 19.9964 10.3797 20.0093 10.3674C20.0223 10.3551 20.0376 10.3455 20.0544 10.3391C20.0712 10.3328 20.0891 10.3298 20.1071 10.3304H23.7857C23.8034 10.3298 23.8211 10.3328 23.8377 10.3392C23.8542 10.3456 23.8693 10.3553 23.8819 10.3676C23.8944 10.38 23.9043 10.3948 23.9108 10.4111C23.9173 10.4273 23.9204 10.4448 23.9197 10.4622Z" fill="#EBF9FC"/>
<path opacity="0.6" d="M22.619 29.5125H21.3139C20.9582 29.5125 20.6172 29.6513 20.3657 29.8986C20.1142 30.1458 19.973 30.4812 19.973 30.8308V34.8781C19.9737 35.2028 20.0963 35.5157 20.3171 35.757V31.7053C20.3171 29.9958 22.704 29.5125 22.619 29.5125Z" fill="white"/>
<path d="M21.2647 36.2141H22.5699C22.9255 36.2141 23.2666 36.0752 23.5181 35.828C23.7695 35.5807 23.9108 35.2454 23.9108 34.8958V31.5032C23.9108 31.1648 23.5667 34.0344 23.5667 34.0344C23.5075 34.6069 23.2437 35.1401 22.8222 35.5392C22.4007 35.9384 21.8488 36.1775 21.2647 36.2141Z" fill="#598A8E"/>
<path d="M27.0173 20.5916H16.9827V27.2097H27.0173V20.5916Z" fill="#F1C40F"/>
<g style="mix-blend-mode:overlay" opacity="0.6">
<path d="M20.2501 27.2185C20.2489 27.3079 20.2123 27.3933 20.148 27.4565C20.0837 27.5197 19.9969 27.5557 19.9059 27.5568C19.815 27.5557 19.7281 27.5197 19.6639 27.4565C19.5996 27.3933 19.5629 27.3079 19.5618 27.2185V20.1301C19.5629 20.0407 19.5996 19.9553 19.6639 19.8921C19.7281 19.8289 19.815 19.7929 19.9059 19.7917C19.9969 19.7929 20.0837 19.8289 20.148 19.8921C20.2123 19.9553 20.2489 20.0407 20.2501 20.1301V27.2185Z" fill="white"/>
</g>
<g style="mix-blend-mode:overlay" opacity="0.6">
<path d="M23.8661 14.1669L23.0884 13.5296C22.6318 13.175 22.0888 12.9438 21.5134 12.859C20.9379 12.7742 20.3499 12.8388 19.8076 13.0463C20.1326 12.5977 20.431 12.1311 20.7015 11.6488C20.8029 11.3763 20.8425 11.0854 20.8178 10.7963H20.4557C20.4874 11.0913 20.4266 11.3887 20.2814 11.6488C19.1818 13.0463 17.0453 14.3382 17.0185 16.2367L16.9827 18.4339C16.9729 18.8904 17.0424 19.3452 17.1883 19.7786L17.3046 27.5481C17.1442 28.0032 17.0626 28.4815 17.0632 28.9632C17.0632 30.0398 17.1436 31.1604 17.2464 32.2678C17.3939 33.7268 18.2879 34.9133 19.0477 34.9133H19.8299C19.3159 34.8562 18.7349 33.7004 18.6544 32.2459C18.5829 31.1516 18.5382 30.0178 18.5293 28.9412C18.5306 28.4724 18.5846 28.0052 18.6902 27.5481L18.6142 19.783C18.517 19.3413 18.4705 18.8902 18.4756 18.4383V16.2411C18.4879 16.0538 18.5118 15.8674 18.5471 15.683C19.1012 15.8262 19.6729 15.8927 20.2456 15.8807H21.8011C24.0985 15.8675 24.9925 15.1073 23.8661 14.1669Z" fill="white"/>
</g>
<g style="mix-blend-mode:overlay">
<path d="M26.7446 19.783C26.887 19.3488 26.9549 18.8944 26.9458 18.4383L26.9145 16.2411C26.8832 14.3382 24.7377 13.0463 23.6516 11.6488C23.5054 11.3892 23.446 11.0909 23.4817 10.7963H23.1733C23.1674 11.1213 23.2095 11.4455 23.2985 11.7587C24.2505 13.1561 26.1233 14.4217 26.1502 16.3026L26.1814 18.4998C26.1856 18.9454 26.1254 19.3893 26.0027 19.8182L25.8864 27.4778C26.0274 27.9279 26.1011 28.3956 26.1055 28.8665C26.1055 29.9343 26.0339 31.0637 25.9445 32.1404C25.8384 33.1403 25.4601 34.0937 24.8495 34.9001H24.8807C25.663 34.9001 26.5435 33.7136 26.6686 32.2327C26.7714 31.1384 26.8385 30.0047 26.8564 28.928C26.8558 28.4587 26.7773 27.9926 26.6239 27.5481L26.7446 19.783Z" fill="#0A0A0A"/>
</g>
<g style="mix-blend-mode:overlay">
<path d="M25.2964 30.3298C25.2964 30.3904 25.2719 30.4485 25.2283 30.4913C25.1848 30.5342 25.1256 30.5583 25.064 30.5583C25.0024 30.5583 24.9432 30.5342 24.8996 30.4913C24.8561 30.4485 24.8316 30.3904 24.8316 30.3298V17.6736C24.8316 17.613 24.8561 17.5549 24.8996 17.512C24.9432 17.4691 25.0024 17.4451 25.064 17.4451C25.1256 17.4451 25.1848 17.4691 25.2283 17.512C25.2719 17.5549 25.2964 17.613 25.2964 17.6736V30.3298Z" fill="#0A0A0A"/>
</g>
</g>
<defs>
<clipPath id="clip0_155_2279">
<rect width="11" height="29.3333" fill="white" transform="translate(16.5 7.33337)"/>
</clipPath>
</defs>
</svg>
