<svg width="40" height="40" viewBox="0 0 40 40" fill="none" xmlns="http://www.w3.org/2000/svg">
<g clip-path="url(#clip0_155_1655)">
<path d="M20 40C31.0457 40 40 31.0457 40 20C40 8.95431 31.0457 0 20 0C8.95431 0 0 8.95431 0 20C0 31.0457 8.95431 40 20 40Z" fill="url(#paint0_linear_155_1655)"/>
<path d="M13.5381 21.462L15.9109 28.0297C15.9109 28.0297 16.2076 28.6442 16.5253 28.6442C16.8429 28.6442 21.5678 23.7288 21.5678 23.7288L26.8219 13.5805L13.6228 19.7667L13.5381 21.462Z" fill="#C8DAEA"/>
<path d="M16.6844 23.1464L16.2289 27.9874C16.2289 27.9874 16.0383 29.4707 17.5213 27.9874C19.0043 26.504 20.4238 25.3602 20.4238 25.3602" fill="#A9C6D8"/>
<path d="M13.5811 21.6964L8.7001 20.106C8.7001 20.106 8.11677 19.8694 8.3046 19.3327C8.34327 19.222 8.42127 19.1279 8.6546 18.966C9.7361 18.2122 28.6723 11.406 28.6723 11.406C28.6723 11.406 29.2069 11.2259 29.5223 11.3457C29.6003 11.3698 29.6705 11.4143 29.7257 11.4745C29.7809 11.5346 29.8191 11.6084 29.8364 11.6882C29.8705 11.8291 29.8848 11.9741 29.8788 12.119C29.8773 12.2444 29.8621 12.3605 29.8506 12.5427C29.7353 14.4035 26.2839 28.2915 26.2839 28.2915C26.2839 28.2915 26.0774 29.1042 25.3376 29.132C25.1558 29.1379 24.9746 29.1071 24.805 29.0415C24.6353 28.9758 24.4806 28.8767 24.3501 28.75C22.8983 27.5012 17.8803 24.1289 16.7714 23.3872C16.7464 23.3701 16.7254 23.3479 16.7097 23.3221C16.694 23.2962 16.684 23.2672 16.6804 23.2372C16.6649 23.159 16.7499 23.0622 16.7499 23.0622C16.7499 23.0622 25.4876 15.2955 25.7201 14.4802C25.7381 14.417 25.6701 14.3859 25.5788 14.4135C24.9984 14.627 14.9381 20.9802 13.8278 21.6814C13.7478 21.7055 13.6634 21.7107 13.5811 21.6964Z" fill="white"/>
</g>
<defs>
<linearGradient id="paint0_linear_155_1655" x1="20" y1="40" x2="20" y2="0" gradientUnits="userSpaceOnUse">
<stop stop-color="#1D93D2"/>
<stop offset="1" stop-color="#38B0E3"/>
</linearGradient>
<clipPath id="clip0_155_1655">
<rect width="40" height="40" fill="white"/>
</clipPath>
</defs>
</svg>
