<?xml version="1.0" standalone="no"?>
<!DOCTYPE svg PUBLIC "-//W3C//DTD SVG 20010904//EN"
 "http://www.w3.org/TR/2001/REC-SVG-20010904/DTD/svg10.dtd">
<svg version="1.0" xmlns="http://www.w3.org/2000/svg"
 width="189.000000pt" height="189.000000pt" viewBox="0 0 189.000000 189.000000"
 preserveAspectRatio="xMidYMid meet">
<metadata>
Created by potrace 1.14, written by Peter Selinger 2001-2017
</metadata>
<g transform="translate(0.000000,189.000000) scale(0.100000,-0.100000)"
fill="#000000" stroke="none">
<path d="M255 1575 c-132 -96 -243 -183 -247 -194 -21 -59 26 -120 95 -122 23
-1 51 -3 62 -4 33 -4 136 -14 210 -20 39 -4 84 -8 101 -10 34 -3 93 26 95 47
0 7 2 20 4 28 3 20 13 126 21 225 3 44 7 93 10 109 6 38 -13 94 -36 106 -48
26 -71 13 -315 -165z"/>
<path d="M918 1496 c-1 -2 -32 -6 -68 -9 -118 -11 -169 -34 -172 -77 -1 -14
47 -158 106 -320 133 -363 144 -388 167 -395 16 -5 123 -1 219 10 19 2 69 6
110 10 41 3 95 8 120 11 25 2 72 6 106 9 229 17 238 25 194 180 -89 311 -374
547 -689 571 -36 3 -71 7 -78 9 -6 2 -13 2 -15 1z"/>
<path d="M78 1110 c-12 -3 -30 -18 -38 -33 -14 -26 -10 -41 95 -355 165 -492
176 -522 198 -534 13 -7 122 -10 306 -10 l286 1 22 25 c12 14 20 34 18 44 -3
15 -102 283 -222 597 -18 50 -41 110 -50 135 -21 62 -37 92 -62 114 -19 17
-40 19 -275 20 -140 1 -265 -1 -278 -4z"/>
</g>
</svg>
